<svg width="3788" height="144" viewBox="0 0 3788 144" fill="none" xmlns="http://www.w3.org/2000/svg">
<g clip-path="url(#clip0_108_750)">
<rect width="3788" height="144" fill="#DA3832"/>
<rect x="954.742" y="-5.2627" width="1878.9" height="153.603" fill="#DA3832"/>
<path d="M1422.07 91.8106C1415.31 91.8106 1409.82 90.0748 1405.62 86.6032C1401.45 83.1315 1399.37 78.4795 1399.37 72.6471C1399.37 66.8148 1401.45 62.1628 1405.62 58.6911C1409.82 55.2195 1415.31 53.4837 1422.07 53.4837C1425.16 53.4837 1429.16 53.692 1434.05 54.1086C1434.3 54.1086 1434.49 54.1953 1434.62 54.3689C1434.8 54.5425 1434.89 54.7508 1434.89 54.9938V68.7415C1434.89 68.9151 1434.83 69.0714 1434.73 69.2102C1434.66 69.3491 1434.54 69.4706 1434.36 69.5747C1434.23 69.6442 1434.07 69.6789 1433.9 69.6789C1429.1 69.2623 1425.16 69.054 1422.07 69.054C1420.62 69.054 1419.4 69.1929 1418.43 69.4706C1417.46 69.7136 1416.76 70.0608 1416.35 70.5121C1415.96 70.9287 1415.7 71.3106 1415.57 71.6577C1415.46 71.9702 1415.41 72.3 1415.41 72.6471C1415.41 72.9943 1415.46 73.3415 1415.57 73.6886C1415.7 74.0011 1415.96 74.383 1416.35 74.8343C1416.76 75.2509 1417.46 75.598 1418.43 75.8758C1419.4 76.1188 1420.62 76.2403 1422.07 76.2403C1425.51 76.2403 1429.45 76.0494 1433.9 75.6675C1434.03 75.6328 1434.16 75.6501 1434.26 75.7196C1434.4 75.7543 1434.5 75.8063 1434.57 75.8758C1434.68 75.9452 1434.75 76.0494 1434.78 76.1882C1434.85 76.2924 1434.89 76.4139 1434.89 76.5528V90.3005C1434.89 90.5435 1434.8 90.7518 1434.62 90.9254C1434.49 91.0989 1434.3 91.1857 1434.05 91.1857C1429.19 91.6023 1425.2 91.8106 1422.07 91.8106ZM1468.18 90.3525C1465.44 91.3246 1462.33 91.8106 1458.86 91.8106C1455.42 91.8106 1452.33 91.3246 1449.59 90.3525C1446.85 89.3805 1444.61 88.0265 1442.87 86.2907C1441.14 84.5549 1439.82 82.5413 1438.92 80.2501C1438.01 77.924 1437.56 75.3897 1437.56 72.6471C1437.56 69.9045 1438.01 67.3876 1438.92 65.0963C1439.82 62.7703 1441.14 60.7394 1442.87 59.0036C1444.61 57.2678 1446.85 55.9138 1449.59 54.9418C1452.33 53.9697 1455.42 53.4837 1458.86 53.4837C1462.33 53.4837 1465.44 53.9697 1468.18 54.9418C1470.93 55.9138 1473.16 57.2678 1474.9 59.0036C1476.64 60.7394 1477.96 62.7703 1478.86 65.0963C1479.76 67.3876 1480.21 69.9045 1480.21 72.6471C1480.21 75.3897 1479.76 77.924 1478.86 80.2501C1477.96 82.5413 1476.64 84.5549 1474.9 86.2907C1473.16 88.0265 1470.93 89.3805 1468.18 90.3525ZM1463.03 70.3559C1462.26 69.8004 1460.88 69.5227 1458.86 69.5227C1456.88 69.5227 1455.51 69.8004 1454.75 70.3559C1453.98 70.9113 1453.6 71.6751 1453.6 72.6471C1453.6 73.6192 1453.98 74.383 1454.75 74.9384C1455.51 75.4939 1456.88 75.7716 1458.86 75.7716C1460.88 75.7716 1462.26 75.4939 1463.03 74.9384C1463.79 74.383 1464.17 73.6192 1464.17 72.6471C1464.17 71.6751 1463.79 70.9113 1463.03 70.3559ZM1498.11 90.8733H1483.94C1483.67 90.8733 1483.44 90.7865 1483.27 90.6129C1483.09 90.4393 1483.01 90.2137 1483.01 89.9359V55.3583C1483.01 55.0806 1483.09 54.855 1483.27 54.6814C1483.44 54.5078 1483.67 54.421 1483.94 54.421H1502.9C1503.39 54.421 1503.68 54.6467 1503.79 55.098L1507.48 69.2102C1507.52 69.4185 1507.66 69.5227 1507.9 69.5227C1508.14 69.5227 1508.3 69.4185 1508.37 69.2102L1512.01 55.098C1512.15 54.6467 1512.45 54.421 1512.9 54.421H1531.91C1532.15 54.421 1532.36 54.5078 1532.53 54.6814C1532.7 54.855 1532.79 55.0806 1532.79 55.3583V89.9359C1532.79 90.1095 1532.76 90.2658 1532.69 90.4046C1532.62 90.5435 1532.51 90.665 1532.37 90.7691C1532.24 90.8386 1532.08 90.8733 1531.91 90.8733H1517.69C1517.45 90.8733 1517.24 90.7865 1517.06 90.6129C1516.89 90.4393 1516.8 90.2137 1516.8 89.9359V77.2818C1516.8 77.0388 1516.67 76.8999 1516.39 76.8652C1516.11 76.8305 1515.94 76.9346 1515.87 77.1776L1512.48 90.1963C1512.38 90.6476 1512.08 90.8733 1511.6 90.8733H1504.2C1503.75 90.8733 1503.46 90.6476 1503.32 90.1963L1499.93 77.1776C1499.86 76.9346 1499.69 76.8305 1499.41 76.8652C1499.17 76.8999 1499.05 77.0388 1499.05 77.2818V89.9359C1499.05 90.2137 1498.94 90.4393 1498.73 90.6129C1498.56 90.7865 1498.35 90.8733 1498.11 90.8733ZM1537.95 54.421H1552.12C1552.36 54.421 1552.57 54.5078 1552.74 54.6814C1552.95 54.855 1553.05 55.0806 1553.05 55.3583V89.9359C1553.05 90.2137 1552.95 90.4393 1552.74 90.6129C1552.57 90.7865 1552.36 90.8733 1552.12 90.8733H1537.95C1537.67 90.8733 1537.45 90.7865 1537.28 90.6129C1537.1 90.4393 1537.01 90.2137 1537.01 89.9359V55.3583C1537.01 55.0806 1537.1 54.855 1537.28 54.6814C1537.45 54.5078 1537.67 54.421 1537.95 54.421ZM1558.14 90.8733C1557.86 90.8733 1557.64 90.7865 1557.46 90.6129C1557.29 90.4393 1557.2 90.2137 1557.2 89.9359V55.3583C1557.2 55.0806 1557.29 54.855 1557.46 54.6814C1557.64 54.5078 1557.86 54.421 1558.14 54.421H1571.89C1572.79 54.421 1573.45 54.8202 1573.87 55.6187L1578.71 64.4193C1578.95 64.8359 1579.3 64.9922 1579.75 64.888C1580.2 64.7492 1580.43 64.4541 1580.43 64.0027V55.3583C1580.43 55.1848 1580.46 55.0285 1580.53 54.8897C1580.64 54.7508 1580.76 54.6467 1580.9 54.5772C1581.04 54.4731 1581.19 54.421 1581.37 54.421H1595.58C1595.83 54.421 1596.03 54.5078 1596.21 54.6814C1596.38 54.855 1596.47 55.0806 1596.47 55.3583V89.9359C1596.47 90.2137 1596.38 90.4393 1596.21 90.6129C1596.03 90.7865 1595.83 90.8733 1595.58 90.8733H1581.78C1580.88 90.8733 1580.22 90.4741 1579.8 89.6756L1574.96 80.875C1574.72 80.4584 1574.37 80.3195 1573.92 80.4584C1573.47 80.5625 1573.24 80.8402 1573.24 81.2915V89.9359C1573.24 90.2137 1573.14 90.4393 1572.93 90.6129C1572.76 90.7865 1572.55 90.8733 1572.31 90.8733H1558.14ZM1621.98 91.8106C1615.21 91.8106 1609.73 90.0748 1605.53 86.6032C1601.36 83.1315 1599.28 78.4795 1599.28 72.6471C1599.28 66.8148 1601.36 62.1628 1605.53 58.6911C1609.73 55.2195 1615.21 53.4837 1621.98 53.4837C1624.93 53.4837 1628.93 53.692 1633.96 54.1086C1634.2 54.1086 1634.39 54.1953 1634.53 54.3689C1634.71 54.5425 1634.79 54.7508 1634.79 54.9938V68.7415C1634.79 68.9151 1634.74 69.0714 1634.64 69.2102C1634.57 69.3491 1634.45 69.4706 1634.27 69.5747C1634.13 69.6442 1633.98 69.6789 1633.8 69.6789C1629.01 69.2623 1625.07 69.054 1621.98 69.054C1620.52 69.054 1619.31 69.1929 1618.34 69.4706C1617.37 69.7136 1616.67 70.0608 1616.25 70.5121C1615.87 70.9287 1615.61 71.3106 1615.47 71.6577C1615.37 71.9702 1615.32 72.3 1615.32 72.6471C1615.32 74.7301 1617 75.9105 1620.37 76.1882C1620.61 76.2229 1620.84 76.1535 1621.05 75.9799C1621.25 75.7716 1621.36 75.5286 1621.36 75.2509V73.1679C1621.36 72.8902 1621.44 72.6645 1621.62 72.4909C1621.79 72.3173 1622 72.2306 1622.24 72.2306H1636.46C1636.7 72.2306 1636.91 72.3173 1637.08 72.4909C1637.26 72.6645 1637.34 72.8902 1637.34 73.1679V90.0401C1637.34 90.1442 1637.33 90.2484 1637.29 90.3525C1637.26 90.4567 1637.21 90.5608 1637.14 90.665C1637.07 90.7344 1636.98 90.8039 1636.88 90.8733C1636.77 90.908 1636.65 90.9254 1636.51 90.9254C1630.05 91.5155 1625.21 91.8106 1621.98 91.8106ZM1662.94 91.1857C1662.69 91.151 1662.48 91.0469 1662.31 90.8733C1662.14 90.6997 1662.05 90.4914 1662.05 90.2484V76.5528C1662.05 76.275 1662.14 76.0494 1662.31 75.8758C1662.52 75.7022 1662.76 75.6328 1663.04 75.6675C1667.87 76.0494 1673.06 76.2403 1678.61 76.2403C1680.17 76.2403 1681.42 76.1362 1682.36 75.9279C1682.74 75.8584 1682.98 75.6501 1683.09 75.303C1683.23 74.9211 1683.19 74.5739 1682.98 74.2615C1682.81 73.949 1682.52 73.7928 1682.1 73.7928H1673.98C1670.23 73.7928 1667.33 72.8902 1665.28 71.0849C1663.27 69.2449 1662.26 67.0404 1662.26 64.4714C1662.26 63.048 1662.5 61.7809 1662.99 60.67C1663.51 59.5243 1664.13 58.587 1664.86 57.8579C1665.59 57.1289 1666.6 56.4866 1667.88 55.9312C1669.17 55.3757 1670.3 54.9591 1671.27 54.6814C1672.27 54.4036 1673.61 54.178 1675.28 54.0044C1676.94 53.8308 1678.21 53.7267 1679.08 53.692C1679.98 53.6225 1681.23 53.5705 1682.83 53.5357C1683.28 53.501 1683.63 53.4837 1683.87 53.4837C1687.03 53.4837 1691.49 53.692 1697.25 54.1086C1697.39 54.1086 1697.53 54.1606 1697.67 54.2648C1697.81 54.3342 1697.91 54.4384 1697.98 54.5772C1698.05 54.7161 1698.09 54.855 1698.09 54.9938V68.7415C1698.09 69.0193 1697.98 69.2449 1697.77 69.4185C1697.57 69.5921 1697.34 69.6789 1697.1 69.6789C1692.31 69.2623 1688.35 69.054 1685.22 69.054C1684.25 69.054 1683.4 69.0887 1682.67 69.1581C1682.22 69.1929 1681.93 69.4012 1681.79 69.783C1681.65 70.1649 1681.68 70.5294 1681.89 70.8766C1682.1 71.1891 1682.41 71.3453 1682.83 71.3453L1689.08 71.0328C1697.2 71.0328 1701.26 74.1747 1701.26 80.4584C1701.26 81.9859 1700.99 83.3745 1700.43 84.6243C1699.87 85.8394 1699.21 86.8462 1698.45 87.6447C1697.69 88.4084 1696.61 89.068 1695.22 89.6235C1693.87 90.1442 1692.65 90.5435 1691.58 90.8212C1690.5 91.0989 1689.09 91.3072 1687.36 91.4461C1685.66 91.585 1684.34 91.6544 1683.4 91.6544C1682.46 91.6891 1681.2 91.7065 1679.6 91.7065C1679.29 91.7065 1679.06 91.7065 1678.92 91.7065C1675.66 91.7065 1670.33 91.5329 1662.94 91.1857ZM1733.34 90.3525C1730.59 91.3246 1727.49 91.8106 1724.02 91.8106C1720.58 91.8106 1717.49 91.3246 1714.75 90.3525C1712 89.3805 1709.76 88.0265 1708.03 86.2907C1706.29 84.5549 1704.97 82.5413 1704.07 80.2501C1703.17 77.924 1702.72 75.3897 1702.72 72.6471C1702.72 69.9045 1703.17 67.3876 1704.07 65.0963C1704.97 62.7703 1706.29 60.7394 1708.03 59.0036C1709.76 57.2678 1712 55.9138 1714.75 54.9418C1717.49 53.9697 1720.58 53.4837 1724.02 53.4837C1727.49 53.4837 1730.59 53.9697 1733.34 54.9418C1736.08 55.9138 1738.32 57.2678 1740.05 59.0036C1741.79 60.7394 1743.11 62.7703 1744.01 65.0963C1744.91 67.3876 1745.37 69.9045 1745.37 72.6471C1745.37 75.3897 1744.91 77.924 1744.01 80.2501C1743.11 82.5413 1741.79 84.5549 1740.05 86.2907C1738.32 88.0265 1736.08 89.3805 1733.34 90.3525ZM1728.18 70.3559C1727.42 69.8004 1726.03 69.5227 1724.02 69.5227C1722.04 69.5227 1720.67 69.8004 1719.9 70.3559C1719.14 70.9113 1718.76 71.6751 1718.76 72.6471C1718.76 73.6192 1719.14 74.383 1719.9 74.9384C1720.67 75.4939 1722.04 75.7716 1724.02 75.7716C1726.03 75.7716 1727.42 75.4939 1728.18 74.9384C1728.95 74.383 1729.33 73.6192 1729.33 72.6471C1729.33 71.6751 1728.95 70.9113 1728.18 70.3559ZM1777.43 90.3525C1774.68 91.3246 1771.58 91.8106 1768.11 91.8106C1764.67 91.8106 1761.58 91.3246 1758.84 90.3525C1756.09 89.3805 1753.85 88.0265 1752.12 86.2907C1750.38 84.5549 1749.06 82.5413 1748.16 80.2501C1747.26 77.924 1746.81 75.3897 1746.81 72.6471C1746.81 69.9045 1747.26 67.3876 1748.16 65.0963C1749.06 62.7703 1750.38 60.7394 1752.12 59.0036C1753.85 57.2678 1756.09 55.9138 1758.84 54.9418C1761.58 53.9697 1764.67 53.4837 1768.11 53.4837C1771.58 53.4837 1774.68 53.9697 1777.43 54.9418C1780.17 55.9138 1782.41 57.2678 1784.14 59.0036C1785.88 60.7394 1787.2 62.7703 1788.1 65.0963C1789.01 67.3876 1789.46 69.9045 1789.46 72.6471C1789.46 75.3897 1789.01 77.924 1788.1 80.2501C1787.2 82.5413 1785.88 84.5549 1784.14 86.2907C1782.41 88.0265 1780.17 89.3805 1777.43 90.3525ZM1772.27 70.3559C1771.51 69.8004 1770.12 69.5227 1768.11 69.5227C1766.13 69.5227 1764.76 69.8004 1763.99 70.3559C1763.23 70.9113 1762.85 71.6751 1762.85 72.6471C1762.85 73.6192 1763.23 74.383 1763.99 74.9384C1764.76 75.4939 1766.13 75.7716 1768.11 75.7716C1770.12 75.7716 1771.51 75.4939 1772.27 74.9384C1773.04 74.383 1773.42 73.6192 1773.42 72.6471C1773.42 71.6751 1773.04 70.9113 1772.27 70.3559ZM1793.19 90.8733C1792.91 90.8733 1792.69 90.7865 1792.51 90.6129C1792.34 90.4393 1792.25 90.2137 1792.25 89.9359V55.3583C1792.25 55.0806 1792.34 54.855 1792.51 54.6814C1792.69 54.5078 1792.91 54.421 1793.19 54.421H1806.94C1807.84 54.421 1808.5 54.8202 1808.92 55.6187L1813.76 64.4193C1814 64.8359 1814.35 64.9922 1814.8 64.888C1815.25 64.7492 1815.48 64.4541 1815.48 64.0027V55.3583C1815.48 55.1848 1815.51 55.0285 1815.58 54.8897C1815.69 54.7508 1815.81 54.6467 1815.95 54.5772C1816.08 54.4731 1816.24 54.421 1816.41 54.421H1830.63C1830.87 54.421 1831.08 54.5078 1831.26 54.6814C1831.43 54.855 1831.52 55.0806 1831.52 55.3583V89.9359C1831.52 90.2137 1831.43 90.4393 1831.26 90.6129C1831.08 90.7865 1830.87 90.8733 1830.63 90.8733H1816.83C1815.93 90.8733 1815.27 90.4741 1814.85 89.6756L1810.01 80.875C1809.77 80.4584 1809.42 80.3195 1808.97 80.4584C1808.52 80.5625 1808.29 80.8402 1808.29 81.2915V89.9359C1808.29 90.2137 1808.19 90.4393 1807.98 90.6129C1807.8 90.7865 1807.6 90.8733 1807.35 90.8733H1793.19ZM1835.26 56.504C1835.16 55.1153 1835.85 54.421 1837.35 54.421H1846.2C1847.69 54.421 1848.39 55.1153 1848.28 56.504L1846.72 75.2509C1846.65 75.9452 1846.46 76.466 1846.15 76.8131C1845.83 77.1603 1845.33 77.3339 1844.64 77.3339H1838.91C1838.21 77.3339 1837.71 77.1603 1837.4 76.8131C1837.09 76.466 1836.9 75.9452 1836.83 75.2509L1835.26 56.504ZM1836.04 81.4998C1836.04 80.1112 1836.74 79.4169 1838.13 79.4169H1845.42C1846.81 79.4169 1847.5 80.1112 1847.5 81.4998V88.7903C1847.5 90.179 1846.81 90.8733 1845.42 90.8733H1838.13C1836.74 90.8733 1836.04 90.179 1836.04 88.7903V81.4998Z" fill="#230000"/>
<path d="M1962.8 91.8109C1956.03 91.8109 1950.54 90.0751 1946.34 86.6034C1942.18 83.1318 1940.09 78.4798 1940.09 72.6474C1940.09 66.815 1942.18 62.163 1946.34 58.6914C1950.54 55.2197 1956.03 53.4839 1962.8 53.4839C1965.89 53.4839 1969.88 53.6922 1974.78 54.1088C1975.02 54.1088 1975.21 54.1956 1975.35 54.3692C1975.52 54.5428 1975.61 54.7511 1975.61 54.9941V68.7418C1975.61 68.9154 1975.56 69.0716 1975.45 69.2105C1975.38 69.3493 1975.26 69.4708 1975.09 69.575C1974.95 69.6444 1974.79 69.6791 1974.62 69.6791C1969.83 69.2625 1965.89 69.0542 1962.8 69.0542C1961.34 69.0542 1960.13 69.1931 1959.15 69.4708C1958.18 69.7139 1957.49 70.061 1957.07 70.5123C1956.69 70.9289 1956.43 71.3108 1956.29 71.658C1956.19 71.9704 1956.13 72.3002 1956.13 72.6474C1956.13 72.9946 1956.19 73.3417 1956.29 73.6889C1956.43 74.0013 1956.69 74.3832 1957.07 74.8345C1957.49 75.2511 1958.18 75.5983 1959.15 75.876C1960.13 76.119 1961.34 76.2405 1962.8 76.2405C1966.24 76.2405 1970.18 76.0496 1974.62 75.6677C1974.76 75.633 1974.88 75.6504 1974.98 75.7198C1975.12 75.7545 1975.23 75.8066 1975.3 75.876C1975.4 75.9455 1975.47 76.0496 1975.5 76.1885C1975.57 76.2926 1975.61 76.4141 1975.61 76.553V90.3007C1975.61 90.5437 1975.52 90.752 1975.35 90.9256C1975.21 91.0992 1975.02 91.186 1974.78 91.186C1969.92 91.6026 1965.92 91.8109 1962.8 91.8109ZM2008.91 90.3528C2006.16 91.3248 2003.06 91.8109 1999.59 91.8109C1996.15 91.8109 1993.06 91.3248 1990.32 90.3528C1987.57 89.3807 1985.33 88.0268 1983.6 86.291C1981.86 84.5551 1980.54 82.5416 1979.64 80.2503C1978.74 77.9243 1978.29 75.39 1978.29 72.6474C1978.29 69.9048 1978.74 67.3878 1979.64 65.0966C1980.54 62.7706 1981.86 60.7396 1983.6 59.0038C1985.33 57.268 1987.57 55.9141 1990.32 54.942C1993.06 53.9699 1996.15 53.4839 1999.59 53.4839C2003.06 53.4839 2006.16 53.9699 2008.91 54.942C2011.65 55.9141 2013.89 57.268 2015.62 59.0038C2017.36 60.7396 2018.68 62.7706 2019.58 65.0966C2020.48 67.3878 2020.94 69.9048 2020.94 72.6474C2020.94 75.39 2020.48 77.9243 2019.58 80.2503C2018.68 82.5416 2017.36 84.5551 2015.62 86.291C2013.89 88.0268 2011.65 89.3807 2008.91 90.3528ZM2003.75 70.3561C2002.99 69.8006 2001.6 69.5229 1999.59 69.5229C1997.61 69.5229 1996.24 69.8006 1995.47 70.3561C1994.71 70.9116 1994.33 71.6753 1994.33 72.6474C1994.33 73.6195 1994.71 74.3832 1995.47 74.9387C1996.24 75.4941 1997.61 75.7719 1999.59 75.7719C2001.6 75.7719 2002.99 75.4941 2003.75 74.9387C2004.51 74.3832 2004.9 73.6195 2004.9 72.6474C2004.9 71.6753 2004.51 70.9116 2003.75 70.3561ZM2038.83 90.8735H2024.67C2024.39 90.8735 2024.17 90.7867 2023.99 90.6132C2023.82 90.4396 2023.73 90.2139 2023.73 89.9362V55.3586C2023.73 55.0809 2023.82 54.8552 2023.99 54.6816C2024.17 54.508 2024.39 54.4212 2024.67 54.4212H2043.62C2044.11 54.4212 2044.4 54.6469 2044.51 55.0982L2048.21 69.2105C2048.24 69.4188 2048.38 69.5229 2048.62 69.5229C2048.87 69.5229 2049.02 69.4188 2049.09 69.2105L2052.74 55.0982C2052.88 54.6469 2053.17 54.4212 2053.62 54.4212H2072.63C2072.87 54.4212 2073.08 54.508 2073.25 54.6816C2073.43 54.8552 2073.51 55.0809 2073.51 55.3586V89.9362C2073.51 90.1098 2073.48 90.266 2073.41 90.4049C2073.34 90.5437 2073.24 90.6652 2073.1 90.7694C2072.96 90.8388 2072.8 90.8735 2072.63 90.8735H2058.41C2058.17 90.8735 2057.96 90.7867 2057.79 90.6132C2057.61 90.4396 2057.53 90.2139 2057.53 89.9362V77.282C2057.53 77.039 2057.39 76.9002 2057.11 76.8654C2056.83 76.8307 2056.66 76.9349 2056.59 77.1779L2053.21 90.1966C2053.1 90.6479 2052.81 90.8735 2052.32 90.8735H2044.93C2044.47 90.8735 2044.18 90.6479 2044.04 90.1966L2040.66 77.1779C2040.59 76.9349 2040.41 76.8307 2040.13 76.8654C2039.89 76.9002 2039.77 77.039 2039.77 77.282V89.9362C2039.77 90.2139 2039.67 90.4396 2039.46 90.6132C2039.28 90.7867 2039.08 90.8735 2038.83 90.8735ZM2078.68 54.4212H2092.84C2093.08 54.4212 2093.29 54.508 2093.46 54.6816C2093.67 54.8552 2093.78 55.0809 2093.78 55.3586V89.9362C2093.78 90.2139 2093.67 90.4396 2093.46 90.6132C2093.29 90.7867 2093.08 90.8735 2092.84 90.8735H2078.68C2078.4 90.8735 2078.17 90.7867 2078 90.6132C2077.83 90.4396 2077.74 90.2139 2077.74 89.9362V55.3586C2077.74 55.0809 2077.83 54.8552 2078 54.6816C2078.17 54.508 2078.4 54.4212 2078.68 54.4212ZM2098.86 90.8735C2098.59 90.8735 2098.36 90.7867 2098.19 90.6132C2098.01 90.4396 2097.93 90.2139 2097.93 89.9362V55.3586C2097.93 55.0809 2098.01 54.8552 2098.19 54.6816C2098.36 54.508 2098.59 54.4212 2098.86 54.4212H2112.61C2113.52 54.4212 2114.17 54.8205 2114.59 55.619L2119.43 64.4196C2119.68 64.8362 2120.02 64.9924 2120.48 64.8883C2120.93 64.7494 2121.15 64.4543 2121.15 64.003V55.3586C2121.15 55.185 2121.19 55.0288 2121.26 54.8899C2121.36 54.7511 2121.48 54.6469 2121.62 54.5775C2121.76 54.4733 2121.92 54.4212 2122.09 54.4212H2136.31C2136.55 54.4212 2136.76 54.508 2136.93 54.6816C2137.1 54.8552 2137.19 55.0809 2137.19 55.3586V89.9362C2137.19 90.2139 2137.1 90.4396 2136.93 90.6132C2136.76 90.7867 2136.55 90.8735 2136.31 90.8735H2122.51C2121.6 90.8735 2120.94 90.4743 2120.53 89.6758L2115.68 80.8752C2115.44 80.4586 2115.09 80.3197 2114.64 80.4586C2114.19 80.5627 2113.97 80.8405 2113.97 81.2918V89.9362C2113.97 90.2139 2113.86 90.4396 2113.65 90.6132C2113.48 90.7867 2113.27 90.8735 2113.03 90.8735H2098.86ZM2162.71 91.8109C2155.94 91.8109 2150.45 90.0751 2146.25 86.6034C2142.08 83.1318 2140 78.4798 2140 72.6474C2140 66.815 2142.08 62.163 2146.25 58.6914C2150.45 55.2197 2155.94 53.4839 2162.71 53.4839C2165.66 53.4839 2169.65 53.6922 2174.68 54.1088C2174.93 54.1088 2175.12 54.1956 2175.26 54.3692C2175.43 54.5428 2175.52 54.7511 2175.52 54.9941V68.7418C2175.52 68.9154 2175.46 69.0716 2175.36 69.2105C2175.29 69.3493 2175.17 69.4708 2175 69.575C2174.86 69.6444 2174.7 69.6791 2174.53 69.6791C2169.74 69.2625 2165.8 69.0542 2162.71 69.0542C2161.25 69.0542 2160.03 69.1931 2159.06 69.4708C2158.09 69.7139 2157.39 70.061 2156.98 70.5123C2156.6 70.9289 2156.34 71.3108 2156.2 71.658C2156.09 71.9704 2156.04 72.3002 2156.04 72.6474C2156.04 74.7304 2157.72 75.9107 2161.09 76.1885C2161.34 76.2232 2161.56 76.1538 2161.77 75.9802C2161.98 75.7719 2162.08 75.5289 2162.08 75.2511V73.1681C2162.08 72.8904 2162.17 72.6648 2162.34 72.4912C2162.52 72.3176 2162.72 72.2308 2162.97 72.2308H2177.18C2177.43 72.2308 2177.63 72.3176 2177.81 72.4912C2177.98 72.6648 2178.07 72.8904 2178.07 73.1681V90.0403C2178.07 90.1445 2178.05 90.2486 2178.02 90.3528C2177.98 90.4569 2177.93 90.5611 2177.86 90.6652C2177.79 90.7347 2177.7 90.8041 2177.6 90.8735C2177.5 90.9083 2177.37 90.9256 2177.24 90.9256C2170.78 91.5158 2165.93 91.8109 2162.71 91.8109ZM2203.66 91.186C2203.42 91.1513 2203.21 91.0471 2203.03 90.8735C2202.86 90.7 2202.77 90.4917 2202.77 90.2486V76.553C2202.77 76.2753 2202.86 76.0496 2203.03 75.876C2203.24 75.7024 2203.49 75.633 2203.76 75.6677C2208.59 76.0496 2213.78 76.2405 2219.33 76.2405C2220.9 76.2405 2222.15 76.1364 2223.08 75.9281C2223.47 75.8587 2223.71 75.6504 2223.81 75.3032C2223.95 74.9213 2223.92 74.5742 2223.71 74.2617C2223.53 73.9493 2223.24 73.793 2222.82 73.793H2214.7C2210.95 73.793 2208.05 72.8904 2206 71.0852C2203.99 69.2452 2202.98 67.0407 2202.98 64.4717C2202.98 63.0483 2203.23 61.7811 2203.71 60.6702C2204.23 59.5246 2204.86 58.5872 2205.59 57.8582C2206.32 57.1291 2207.32 56.4869 2208.61 55.9314C2209.89 55.376 2211.02 54.9594 2211.99 54.6816C2213 54.4039 2214.33 54.1782 2216 54.0047C2217.67 53.8311 2218.93 53.7269 2219.8 53.6922C2220.71 53.6228 2221.96 53.5707 2223.55 53.536C2224 53.5013 2224.35 53.4839 2224.59 53.4839C2227.75 53.4839 2232.21 53.6922 2237.98 54.1088C2238.12 54.1088 2238.25 54.1609 2238.39 54.265C2238.53 54.3345 2238.64 54.4386 2238.71 54.5775C2238.78 54.7163 2238.81 54.8552 2238.81 54.9941V68.7418C2238.81 69.0195 2238.71 69.2452 2238.5 69.4188C2238.29 69.5923 2238.06 69.6791 2237.82 69.6791C2233.03 69.2625 2229.07 69.0542 2225.95 69.0542C2224.98 69.0542 2224.12 69.089 2223.4 69.1584C2222.94 69.1931 2222.65 69.4014 2222.51 69.7833C2222.37 70.1652 2222.41 70.5297 2222.61 70.8769C2222.82 71.1893 2223.14 71.3455 2223.55 71.3455L2229.8 71.0331C2237.92 71.0331 2241.99 74.1749 2241.99 80.4586C2241.99 81.9861 2241.71 83.3748 2241.15 84.6246C2240.6 85.8396 2239.94 86.8464 2239.17 87.6449C2238.41 88.4087 2237.33 89.0683 2235.95 89.6237C2234.59 90.1445 2233.38 90.5437 2232.3 90.8215C2231.22 91.0992 2229.82 91.3075 2228.08 91.4464C2226.38 91.5852 2225.06 91.6547 2224.12 91.6547C2223.19 91.6894 2221.92 91.7067 2220.32 91.7067C2220.01 91.7067 2219.79 91.7067 2219.65 91.7067C2216.38 91.7067 2211.05 91.5331 2203.66 91.186ZM2274.06 90.3528C2271.32 91.3248 2268.21 91.8109 2264.74 91.8109C2261.3 91.8109 2258.21 91.3248 2255.47 90.3528C2252.73 89.3807 2250.49 88.0268 2248.75 86.291C2247.02 84.5551 2245.7 82.5416 2244.79 80.2503C2243.89 77.9243 2243.44 75.39 2243.44 72.6474C2243.44 69.9048 2243.89 67.3878 2244.79 65.0966C2245.7 62.7706 2247.02 60.7396 2248.75 59.0038C2250.49 57.268 2252.73 55.9141 2255.47 54.942C2258.21 53.9699 2261.3 53.4839 2264.74 53.4839C2268.21 53.4839 2271.32 53.9699 2274.06 54.942C2276.8 55.9141 2279.04 57.268 2280.78 59.0038C2282.51 60.7396 2283.83 62.7706 2284.74 65.0966C2285.64 67.3878 2286.09 69.9048 2286.09 72.6474C2286.09 75.39 2285.64 77.9243 2284.74 80.2503C2283.83 82.5416 2282.51 84.5551 2280.78 86.291C2279.04 88.0268 2276.8 89.3807 2274.06 90.3528ZM2268.9 70.3561C2268.14 69.8006 2266.75 69.5229 2264.74 69.5229C2262.76 69.5229 2261.39 69.8006 2260.63 70.3561C2259.86 70.9116 2259.48 71.6753 2259.48 72.6474C2259.48 73.6195 2259.86 74.3832 2260.63 74.9387C2261.39 75.4941 2262.76 75.7719 2264.74 75.7719C2266.75 75.7719 2268.14 75.4941 2268.9 74.9387C2269.67 74.3832 2270.05 73.6195 2270.05 72.6474C2270.05 71.6753 2269.67 70.9116 2268.9 70.3561ZM2318.15 90.3528C2315.41 91.3248 2312.3 91.8109 2308.83 91.8109C2305.39 91.8109 2302.3 91.3248 2299.56 90.3528C2296.82 89.3807 2294.58 88.0268 2292.84 86.291C2291.11 84.5551 2289.79 82.5416 2288.88 80.2503C2287.98 77.9243 2287.53 75.39 2287.53 72.6474C2287.53 69.9048 2287.98 67.3878 2288.88 65.0966C2289.79 62.7706 2291.11 60.7396 2292.84 59.0038C2294.58 57.268 2296.82 55.9141 2299.56 54.942C2302.3 53.9699 2305.39 53.4839 2308.83 53.4839C2312.3 53.4839 2315.41 53.9699 2318.15 54.942C2320.89 55.9141 2323.13 57.268 2324.87 59.0038C2326.6 60.7396 2327.92 62.7706 2328.83 65.0966C2329.73 67.3878 2330.18 69.9048 2330.18 72.6474C2330.18 75.39 2329.73 77.9243 2328.83 80.2503C2327.92 82.5416 2326.6 84.5551 2324.87 86.291C2323.13 88.0268 2320.89 89.3807 2318.15 90.3528ZM2313 70.3561C2312.23 69.8006 2310.84 69.5229 2308.83 69.5229C2306.85 69.5229 2305.48 69.8006 2304.72 70.3561C2303.95 70.9116 2303.57 71.6753 2303.57 72.6474C2303.57 73.6195 2303.95 74.3832 2304.72 74.9387C2305.48 75.4941 2306.85 75.7719 2308.83 75.7719C2310.84 75.7719 2312.23 75.4941 2313 74.9387C2313.76 74.3832 2314.14 73.6195 2314.14 72.6474C2314.14 71.6753 2313.76 70.9116 2313 70.3561ZM2333.91 90.8735C2333.64 90.8735 2333.41 90.7867 2333.24 90.6132C2333.06 90.4396 2332.98 90.2139 2332.98 89.9362V55.3586C2332.98 55.0809 2333.06 54.8552 2333.24 54.6816C2333.41 54.508 2333.64 54.4212 2333.91 54.4212H2347.66C2348.56 54.4212 2349.22 54.8205 2349.64 55.619L2354.48 64.4196C2354.73 64.8362 2355.07 64.9924 2355.52 64.8883C2355.98 64.7494 2356.2 64.4543 2356.2 64.003V55.3586C2356.2 55.185 2356.24 55.0288 2356.3 54.8899C2356.41 54.7511 2356.53 54.6469 2356.67 54.5775C2356.81 54.4733 2356.96 54.4212 2357.14 54.4212H2371.35C2371.6 54.4212 2371.81 54.508 2371.98 54.6816C2372.15 54.8552 2372.24 55.0809 2372.24 55.3586V89.9362C2372.24 90.2139 2372.15 90.4396 2371.98 90.6132C2371.81 90.7867 2371.6 90.8735 2371.35 90.8735H2357.55C2356.65 90.8735 2355.99 90.4743 2355.58 89.6758L2350.73 80.8752C2350.49 80.4586 2350.14 80.3197 2349.69 80.4586C2349.24 80.5627 2349.01 80.8405 2349.01 81.2918V89.9362C2349.01 90.2139 2348.91 90.4396 2348.7 90.6132C2348.53 90.7867 2348.32 90.8735 2348.08 90.8735H2333.91ZM2375.99 56.5042C2375.88 55.1156 2376.58 54.4212 2378.07 54.4212H2386.92C2388.42 54.4212 2389.11 55.1156 2389.01 56.5042L2387.44 75.2511C2387.37 75.9455 2387.18 76.4662 2386.87 76.8134C2386.56 77.1605 2386.05 77.3341 2385.36 77.3341H2379.63C2378.94 77.3341 2378.43 77.1605 2378.12 76.8134C2377.81 76.4662 2377.62 75.9455 2377.55 75.2511L2375.99 56.5042ZM2376.77 81.5001C2376.77 80.1114 2377.46 79.4171 2378.85 79.4171H2386.14C2387.53 79.4171 2388.22 80.1114 2388.22 81.5001V88.7905C2388.22 90.1792 2387.53 90.8735 2386.14 90.8735H2378.85C2377.46 90.8735 2376.77 90.1792 2376.77 88.7905V81.5001Z" fill="#230000"/>
<path d="M881.351 91.8106C874.582 91.8106 869.096 90.0748 864.896 86.6032C860.73 83.1315 858.647 78.4795 858.647 72.6471C858.647 66.8148 860.73 62.1628 864.896 58.6911C869.096 55.2195 874.582 53.4837 881.351 53.4837C884.441 53.4837 888.433 53.692 893.328 54.1086C893.571 54.1086 893.762 54.1953 893.901 54.3689C894.075 54.5425 894.162 54.7508 894.162 54.9938V68.7415C894.162 68.9151 894.11 69.0714 894.005 69.2102C893.936 69.3491 893.814 69.4706 893.641 69.5747C893.502 69.6442 893.346 69.6789 893.172 69.6789C888.381 69.2623 884.441 69.054 881.351 69.054C879.893 69.054 878.678 69.1929 877.706 69.4706C876.734 69.7136 876.04 70.0608 875.623 70.5121C875.241 70.9287 874.981 71.3106 874.842 71.6577C874.738 71.9702 874.686 72.3 874.686 72.6471C874.686 72.9943 874.738 73.3415 874.842 73.6886C874.981 74.0011 875.241 74.383 875.623 74.8343C876.04 75.2509 876.734 75.598 877.706 75.8758C878.678 76.1188 879.893 76.2403 881.351 76.2403C884.788 76.2403 888.729 76.0494 893.172 75.6675C893.311 75.6328 893.433 75.6501 893.537 75.7196C893.676 75.7543 893.78 75.8063 893.849 75.8758C893.953 75.9452 894.023 76.0494 894.057 76.1882C894.127 76.2924 894.162 76.4139 894.162 76.5528V90.3005C894.162 90.5435 894.075 90.7518 893.901 90.9254C893.762 91.0989 893.571 91.1857 893.328 91.1857C888.468 91.6023 884.476 91.8106 881.351 91.8106ZM927.459 90.3525C924.717 91.3246 921.61 91.8106 918.138 91.8106C914.701 91.8106 911.611 91.3246 908.869 90.3525C906.126 89.3805 903.887 88.0265 902.151 86.2907C900.415 84.5549 899.096 82.5413 898.193 80.2501C897.291 77.924 896.839 75.3897 896.839 72.6471C896.839 69.9045 897.291 67.3876 898.193 65.0963C899.096 62.7703 900.415 60.7394 902.151 59.0036C903.887 57.2678 906.126 55.9138 908.869 54.9418C911.611 53.9697 914.701 53.4837 918.138 53.4837C921.61 53.4837 924.717 53.9697 927.459 54.9418C930.202 55.9138 932.441 57.2678 934.177 59.0036C935.913 60.7394 937.232 62.7703 938.135 65.0963C939.037 67.3876 939.489 69.9045 939.489 72.6471C939.489 75.3897 939.037 77.924 938.135 80.2501C937.232 82.5413 935.913 84.5549 934.177 86.2907C932.441 88.0265 930.202 89.3805 927.459 90.3525ZM922.304 70.3559C921.54 69.8004 920.152 69.5227 918.138 69.5227C916.159 69.5227 914.788 69.8004 914.024 70.3559C913.26 70.9113 912.878 71.6751 912.878 72.6471C912.878 73.6192 913.26 74.383 914.024 74.9384C914.788 75.4939 916.159 75.7716 918.138 75.7716C920.152 75.7716 921.54 75.4939 922.304 74.9384C923.068 74.383 923.45 73.6192 923.45 72.6471C923.45 71.6751 923.068 70.9113 922.304 70.3559ZM957.386 90.8733H943.221C942.944 90.8733 942.718 90.7865 942.544 90.6129C942.371 90.4393 942.284 90.2137 942.284 89.9359V55.3583C942.284 55.0806 942.371 54.855 942.544 54.6814C942.718 54.5078 942.944 54.421 943.221 54.421H962.176C962.663 54.421 962.958 54.6467 963.062 55.098L966.759 69.2102C966.794 69.4185 966.933 69.5227 967.176 69.5227C967.419 69.5227 967.575 69.4185 967.644 69.2102L971.29 55.098C971.428 54.6467 971.724 54.421 972.175 54.421H991.182C991.425 54.421 991.633 54.5078 991.807 54.6814C991.981 54.855 992.067 55.0806 992.067 55.3583V89.9359C992.067 90.1095 992.033 90.2658 991.963 90.4046C991.894 90.5435 991.79 90.665 991.651 90.7691C991.512 90.8386 991.356 90.8733 991.182 90.8733H976.966C976.723 90.8733 976.514 90.7865 976.341 90.6129C976.167 90.4393 976.08 90.2137 976.08 89.9359V77.2818C976.08 77.0388 975.942 76.8999 975.664 76.8652C975.386 76.8305 975.213 76.9346 975.143 77.1776L971.758 90.1963C971.654 90.6476 971.359 90.8733 970.873 90.8733H963.478C963.027 90.8733 962.732 90.6476 962.593 90.1963L959.208 77.1776C959.139 76.9346 958.965 76.8305 958.687 76.8652C958.444 76.8999 958.323 77.0388 958.323 77.2818V89.9359C958.323 90.2137 958.219 90.4393 958.011 90.6129C957.837 90.7865 957.629 90.8733 957.386 90.8733ZM997.228 54.421H1011.39C1011.64 54.421 1011.84 54.5078 1012.02 54.6814C1012.23 54.855 1012.33 55.0806 1012.33 55.3583V89.9359C1012.33 90.2137 1012.23 90.4393 1012.02 90.6129C1011.84 90.7865 1011.64 90.8733 1011.39 90.8733H997.228C996.951 90.8733 996.725 90.7865 996.551 90.6129C996.378 90.4393 996.291 90.2137 996.291 89.9359V55.3583C996.291 55.0806 996.378 54.855 996.551 54.6814C996.725 54.5078 996.951 54.421 997.228 54.421ZM1017.42 90.8733C1017.14 90.8733 1016.91 90.7865 1016.74 90.6129C1016.57 90.4393 1016.48 90.2137 1016.48 89.9359V55.3583C1016.48 55.0806 1016.57 54.855 1016.74 54.6814C1016.91 54.5078 1017.14 54.421 1017.42 54.421H1031.17C1032.07 54.421 1032.73 54.8202 1033.14 55.6187L1037.99 64.4193C1038.23 64.8359 1038.58 64.9922 1039.03 64.888C1039.48 64.7492 1039.71 64.4541 1039.71 64.0027V55.3583C1039.71 55.1848 1039.74 55.0285 1039.81 54.8897C1039.91 54.7508 1040.04 54.6467 1040.17 54.5772C1040.31 54.4731 1040.47 54.421 1040.64 54.421H1054.86C1055.1 54.421 1055.31 54.5078 1055.48 54.6814C1055.66 54.855 1055.74 55.0806 1055.74 55.3583V89.9359C1055.74 90.2137 1055.66 90.4393 1055.48 90.6129C1055.31 90.7865 1055.1 90.8733 1054.86 90.8733H1041.06C1040.16 90.8733 1039.5 90.4741 1039.08 89.6756L1034.24 80.875C1033.99 80.4584 1033.65 80.3195 1033.2 80.4584C1032.74 80.5625 1032.52 80.8402 1032.52 81.2915V89.9359C1032.52 90.2137 1032.42 90.4393 1032.21 90.6129C1032.03 90.7865 1031.82 90.8733 1031.58 90.8733H1017.42ZM1081.26 91.8106C1074.49 91.8106 1069 90.0748 1064.8 86.6032C1060.64 83.1315 1058.55 78.4795 1058.55 72.6471C1058.55 66.8148 1060.64 62.1628 1064.8 58.6911C1069 55.2195 1074.49 53.4837 1081.26 53.4837C1084.21 53.4837 1088.2 53.692 1093.24 54.1086C1093.48 54.1086 1093.67 54.1953 1093.81 54.3689C1093.98 54.5425 1094.07 54.7508 1094.07 54.9938V68.7415C1094.07 68.9151 1094.02 69.0714 1093.91 69.2102C1093.84 69.3491 1093.72 69.4706 1093.55 69.5747C1093.41 69.6442 1093.25 69.6789 1093.08 69.6789C1088.29 69.2623 1084.35 69.054 1081.26 69.054C1079.8 69.054 1078.59 69.1929 1077.61 69.4706C1076.64 69.7136 1075.95 70.0608 1075.53 70.5121C1075.15 70.9287 1074.89 71.3106 1074.75 71.6577C1074.65 71.9702 1074.59 72.3 1074.59 72.6471C1074.59 74.7301 1076.28 75.9105 1079.64 76.1882C1079.89 76.2229 1080.11 76.1535 1080.32 75.9799C1080.53 75.7716 1080.63 75.5286 1080.63 75.2509V73.1679C1080.63 72.8902 1080.72 72.6645 1080.89 72.4909C1081.07 72.3173 1081.28 72.2306 1081.52 72.2306H1095.74C1095.98 72.2306 1096.19 72.3173 1096.36 72.4909C1096.53 72.6645 1096.62 72.8902 1096.62 73.1679V90.0401C1096.62 90.1442 1096.6 90.2484 1096.57 90.3525C1096.53 90.4567 1096.48 90.5608 1096.41 90.665C1096.34 90.7344 1096.26 90.8039 1096.15 90.8733C1096.05 90.908 1095.93 90.9254 1095.79 90.9254C1089.33 91.5155 1084.49 91.8106 1081.26 91.8106ZM1122.21 91.1857C1121.97 91.151 1121.76 91.0469 1121.59 90.8733C1121.41 90.6997 1121.33 90.4914 1121.33 90.2484V76.5528C1121.33 76.275 1121.41 76.0494 1121.59 75.8758C1121.8 75.7022 1122.04 75.6328 1122.32 75.6675C1127.14 76.0494 1132.33 76.2403 1137.89 76.2403C1139.45 76.2403 1140.7 76.1362 1141.64 75.9279C1142.02 75.8584 1142.26 75.6501 1142.37 75.303C1142.5 74.9211 1142.47 74.5739 1142.26 74.2615C1142.09 73.949 1141.79 73.7928 1141.38 73.7928H1133.25C1129.5 73.7928 1126.6 72.8902 1124.56 71.0849C1122.54 69.2449 1121.54 67.0404 1121.54 64.4714C1121.54 63.048 1121.78 61.7809 1122.26 60.67C1122.78 59.5243 1123.41 58.587 1124.14 57.8579C1124.87 57.1289 1125.87 56.4866 1127.16 55.9312C1128.44 55.3757 1129.57 54.9591 1130.54 54.6814C1131.55 54.4036 1132.89 54.178 1134.55 54.0044C1136.22 53.8308 1137.49 53.7267 1138.36 53.692C1139.26 53.6225 1140.51 53.5705 1142.1 53.5357C1142.56 53.501 1142.9 53.4837 1143.15 53.4837C1146.31 53.4837 1150.77 53.692 1156.53 54.1086C1156.67 54.1086 1156.81 54.1606 1156.95 54.2648C1157.08 54.3342 1157.19 54.4384 1157.26 54.5772C1157.33 54.7161 1157.36 54.855 1157.36 54.9938V68.7415C1157.36 69.0193 1157.26 69.2449 1157.05 69.4185C1156.84 69.5921 1156.62 69.6789 1156.37 69.6789C1151.58 69.2623 1147.62 69.054 1144.5 69.054C1143.53 69.054 1142.68 69.0887 1141.95 69.1581C1141.5 69.1929 1141.2 69.4012 1141.06 69.783C1140.92 70.1649 1140.96 70.5294 1141.17 70.8766C1141.38 71.1891 1141.69 71.3453 1142.1 71.3453L1148.35 71.0328C1156.48 71.0328 1160.54 74.1747 1160.54 80.4584C1160.54 81.9859 1160.26 83.3745 1159.71 84.6243C1159.15 85.8394 1158.49 86.8462 1157.73 87.6447C1156.96 88.4084 1155.89 89.068 1154.5 89.6235C1153.14 90.1442 1151.93 90.5435 1150.85 90.8212C1149.78 91.0989 1148.37 91.3072 1146.64 91.4461C1144.93 91.585 1143.61 91.6544 1142.68 91.6544C1141.74 91.6891 1140.47 91.7065 1138.88 91.7065C1138.56 91.7065 1138.34 91.7065 1138.2 91.7065C1134.94 91.7065 1129.61 91.5329 1122.21 91.1857ZM1192.61 90.3525C1189.87 91.3246 1186.76 91.8106 1183.29 91.8106C1179.85 91.8106 1176.77 91.3246 1174.02 90.3525C1171.28 89.3805 1169.04 88.0265 1167.3 86.2907C1165.57 84.5549 1164.25 82.5413 1163.35 80.2501C1162.44 77.924 1161.99 75.3897 1161.99 72.6471C1161.99 69.9045 1162.44 67.3876 1163.35 65.0963C1164.25 62.7703 1165.57 60.7394 1167.3 59.0036C1169.04 57.2678 1171.28 55.9138 1174.02 54.9418C1176.77 53.9697 1179.85 53.4837 1183.29 53.4837C1186.76 53.4837 1189.87 53.9697 1192.61 54.9418C1195.36 55.9138 1197.59 57.2678 1199.33 59.0036C1201.07 60.7394 1202.39 62.7703 1203.29 65.0963C1204.19 67.3876 1204.64 69.9045 1204.64 72.6471C1204.64 75.3897 1204.19 77.924 1203.29 80.2501C1202.39 82.5413 1201.07 84.5549 1199.33 86.2907C1197.59 88.0265 1195.36 89.3805 1192.61 90.3525ZM1187.46 70.3559C1186.69 69.8004 1185.31 69.5227 1183.29 69.5227C1181.31 69.5227 1179.94 69.8004 1179.18 70.3559C1178.41 70.9113 1178.03 71.6751 1178.03 72.6471C1178.03 73.6192 1178.41 74.383 1179.18 74.9384C1179.94 75.4939 1181.31 75.7716 1183.29 75.7716C1185.31 75.7716 1186.69 75.4939 1187.46 74.9384C1188.22 74.383 1188.6 73.6192 1188.6 72.6471C1188.6 71.6751 1188.22 70.9113 1187.46 70.3559ZM1236.7 90.3525C1233.96 91.3246 1230.85 91.8106 1227.38 91.8106C1223.95 91.8106 1220.86 91.3246 1218.11 90.3525C1215.37 89.3805 1213.13 88.0265 1211.4 86.2907C1209.66 84.5549 1208.34 82.5413 1207.44 80.2501C1206.54 77.924 1206.08 75.3897 1206.08 72.6471C1206.08 69.9045 1206.54 67.3876 1207.44 65.0963C1208.34 62.7703 1209.66 60.7394 1211.4 59.0036C1213.13 57.2678 1215.37 55.9138 1218.11 54.9418C1220.86 53.9697 1223.95 53.4837 1227.38 53.4837C1230.85 53.4837 1233.96 53.9697 1236.7 54.9418C1239.45 55.9138 1241.69 57.2678 1243.42 59.0036C1245.16 60.7394 1246.48 62.7703 1247.38 65.0963C1248.28 67.3876 1248.73 69.9045 1248.73 72.6471C1248.73 75.3897 1248.28 77.924 1247.38 80.2501C1246.48 82.5413 1245.16 84.5549 1243.42 86.2907C1241.69 88.0265 1239.45 89.3805 1236.7 90.3525ZM1231.55 70.3559C1230.78 69.8004 1229.4 69.5227 1227.38 69.5227C1225.4 69.5227 1224.03 69.8004 1223.27 70.3559C1222.5 70.9113 1222.12 71.6751 1222.12 72.6471C1222.12 73.6192 1222.5 74.383 1223.27 74.9384C1224.03 75.4939 1225.4 75.7716 1227.38 75.7716C1229.4 75.7716 1230.78 75.4939 1231.55 74.9384C1232.31 74.383 1232.69 73.6192 1232.69 72.6471C1232.69 71.6751 1232.31 70.9113 1231.55 70.3559ZM1252.47 90.8733C1252.19 90.8733 1251.96 90.7865 1251.79 90.6129C1251.62 90.4393 1251.53 90.2137 1251.53 89.9359V55.3583C1251.53 55.0806 1251.62 54.855 1251.79 54.6814C1251.96 54.5078 1252.19 54.421 1252.47 54.421H1266.21C1267.12 54.421 1267.78 54.8202 1268.19 55.6187L1273.04 64.4193C1273.28 64.8359 1273.63 64.9922 1274.08 64.888C1274.53 64.7492 1274.75 64.4541 1274.75 64.0027V55.3583C1274.75 55.1848 1274.79 55.0285 1274.86 54.8897C1274.96 54.7508 1275.08 54.6467 1275.22 54.5772C1275.36 54.4731 1275.52 54.421 1275.69 54.421H1289.91C1290.15 54.421 1290.36 54.5078 1290.53 54.6814C1290.71 54.855 1290.79 55.0806 1290.79 55.3583V89.9359C1290.79 90.2137 1290.71 90.4393 1290.53 90.6129C1290.36 90.7865 1290.15 90.8733 1289.91 90.8733H1276.11C1275.2 90.8733 1274.55 90.4741 1274.13 89.6756L1269.29 80.875C1269.04 80.4584 1268.7 80.3195 1268.24 80.4584C1267.79 80.5625 1267.57 80.8402 1267.57 81.2915V89.9359C1267.57 90.2137 1267.46 90.4393 1267.25 90.6129C1267.08 90.7865 1266.87 90.8733 1266.63 90.8733H1252.47ZM1294.54 56.504C1294.44 55.1153 1295.13 54.421 1296.62 54.421H1305.48C1306.97 54.421 1307.66 55.1153 1307.56 56.504L1306 75.2509C1305.93 75.9452 1305.74 76.466 1305.42 76.8131C1305.11 77.1603 1304.61 77.3339 1303.91 77.3339H1298.19C1297.49 77.3339 1296.99 77.1603 1296.68 76.8131C1296.36 76.466 1296.17 75.9452 1296.1 75.2509L1294.54 56.504ZM1295.32 81.4998C1295.32 80.1112 1296.02 79.4169 1297.4 79.4169H1304.69C1306.08 79.4169 1306.78 80.1112 1306.78 81.4998V88.7903C1306.78 90.179 1306.08 90.8733 1304.69 90.8733H1297.4C1296.02 90.8733 1295.32 90.179 1295.32 88.7903V81.4998Z" fill="#230000"/>
<path d="M340.392 91.8106C333.623 91.8106 328.137 90.0748 323.937 86.6032C319.771 83.1315 317.688 78.4795 317.688 72.6471C317.688 66.8148 319.771 62.1628 323.937 58.6911C328.137 55.2195 333.623 53.4837 340.392 53.4837C343.482 53.4837 347.474 53.692 352.369 54.1086C352.612 54.1086 352.803 54.1953 352.942 54.3689C353.116 54.5425 353.203 54.7508 353.203 54.9938V68.7415C353.203 68.9151 353.151 69.0714 353.046 69.2102C352.977 69.3491 352.855 69.4706 352.682 69.5747C352.543 69.6442 352.387 69.6789 352.213 69.6789C347.422 69.2623 343.482 69.054 340.392 69.054C338.934 69.054 337.719 69.1929 336.747 69.4706C335.775 69.7136 335.081 70.0608 334.664 70.5121C334.282 70.9287 334.022 71.3106 333.883 71.6577C333.779 71.9702 333.727 72.3 333.727 72.6471C333.727 72.9943 333.779 73.3415 333.883 73.6886C334.022 74.0011 334.282 74.383 334.664 74.8343C335.081 75.2509 335.775 75.598 336.747 75.8758C337.719 76.1188 338.934 76.2403 340.392 76.2403C343.829 76.2403 347.77 76.0494 352.213 75.6675C352.352 75.6328 352.474 75.6501 352.578 75.7196C352.717 75.7543 352.821 75.8063 352.89 75.8758C352.994 75.9452 353.064 76.0494 353.099 76.1882C353.168 76.2924 353.203 76.4139 353.203 76.5528V90.3005C353.203 90.5435 353.116 90.7518 352.942 90.9254C352.803 91.0989 352.612 91.1857 352.369 91.1857C347.509 91.6023 343.517 91.8106 340.392 91.8106ZM386.5 90.3525C383.758 91.3246 380.651 91.8106 377.179 91.8106C373.742 91.8106 370.652 91.3246 367.91 90.3525C365.167 89.3805 362.928 88.0265 361.192 86.2907C359.456 84.5549 358.137 82.5413 357.234 80.2501C356.332 77.924 355.88 75.3897 355.88 72.6471C355.88 69.9045 356.332 67.3876 357.234 65.0963C358.137 62.7703 359.456 60.7394 361.192 59.0036C362.928 57.2678 365.167 55.9138 367.91 54.9418C370.652 53.9697 373.742 53.4837 377.179 53.4837C380.651 53.4837 383.758 53.9697 386.5 54.9418C389.243 55.9138 391.482 57.2678 393.218 59.0036C394.954 60.7394 396.273 62.7703 397.176 65.0963C398.078 67.3876 398.53 69.9045 398.53 72.6471C398.53 75.3897 398.078 77.924 397.176 80.2501C396.273 82.5413 394.954 84.5549 393.218 86.2907C391.482 88.0265 389.243 89.3805 386.5 90.3525ZM381.345 70.3559C380.581 69.8004 379.193 69.5227 377.179 69.5227C375.2 69.5227 373.829 69.8004 373.065 70.3559C372.301 70.9113 371.919 71.6751 371.919 72.6471C371.919 73.6192 372.301 74.383 373.065 74.9384C373.829 75.4939 375.2 75.7716 377.179 75.7716C379.193 75.7716 380.581 75.4939 381.345 74.9384C382.109 74.383 382.491 73.6192 382.491 72.6471C382.491 71.6751 382.109 70.9113 381.345 70.3559ZM416.427 90.8733H402.262C401.985 90.8733 401.759 90.7865 401.585 90.6129C401.412 90.4393 401.325 90.2137 401.325 89.9359V55.3583C401.325 55.0806 401.412 54.855 401.585 54.6814C401.759 54.5078 401.985 54.421 402.262 54.421H421.217C421.704 54.421 421.999 54.6467 422.103 55.098L425.8 69.2102C425.835 69.4185 425.974 69.5227 426.217 69.5227C426.46 69.5227 426.616 69.4185 426.685 69.2102L430.331 55.098C430.469 54.6467 430.765 54.421 431.216 54.421H450.223C450.466 54.421 450.674 54.5078 450.848 54.6814C451.022 54.855 451.108 55.0806 451.108 55.3583V89.9359C451.108 90.1095 451.074 90.2658 451.004 90.4046C450.935 90.5435 450.831 90.665 450.692 90.7691C450.553 90.8386 450.397 90.8733 450.223 90.8733H436.007C435.764 90.8733 435.555 90.7865 435.382 90.6129C435.208 90.4393 435.121 90.2137 435.121 89.9359V77.2818C435.121 77.0388 434.983 76.8999 434.705 76.8652C434.427 76.8305 434.254 76.9346 434.184 77.1776L430.799 90.1963C430.695 90.6476 430.4 90.8733 429.914 90.8733H422.519C422.068 90.8733 421.773 90.6476 421.634 90.1963L418.249 77.1776C418.18 76.9346 418.006 76.8305 417.728 76.8652C417.485 76.8999 417.364 77.0388 417.364 77.2818V89.9359C417.364 90.2137 417.26 90.4393 417.052 90.6129C416.878 90.7865 416.67 90.8733 416.427 90.8733ZM456.269 54.421H470.434C470.677 54.421 470.885 54.5078 471.059 54.6814C471.267 54.855 471.371 55.0806 471.371 55.3583V89.9359C471.371 90.2137 471.267 90.4393 471.059 90.6129C470.885 90.7865 470.677 90.8733 470.434 90.8733H456.269C455.992 90.8733 455.766 90.7865 455.592 90.6129C455.419 90.4393 455.332 90.2137 455.332 89.9359V55.3583C455.332 55.0806 455.419 54.855 455.592 54.6814C455.766 54.5078 455.992 54.421 456.269 54.421ZM476.459 90.8733C476.181 90.8733 475.955 90.7865 475.782 90.6129C475.608 90.4393 475.521 90.2137 475.521 89.9359V55.3583C475.521 55.0806 475.608 54.855 475.782 54.6814C475.955 54.5078 476.181 54.421 476.459 54.421H490.206C491.109 54.421 491.769 54.8202 492.185 55.6187L497.028 64.4193C497.271 64.8359 497.618 64.9922 498.07 64.888C498.521 64.7492 498.747 64.4541 498.747 64.0027V55.3583C498.747 55.1848 498.781 55.0285 498.851 54.8897C498.955 54.7508 499.076 54.6467 499.215 54.5772C499.354 54.4731 499.51 54.421 499.684 54.421H513.9C514.143 54.421 514.352 54.5078 514.525 54.6814C514.699 54.855 514.786 55.0806 514.786 55.3583V89.9359C514.786 90.2137 514.699 90.4393 514.525 90.6129C514.352 90.7865 514.143 90.8733 513.9 90.8733H500.1C499.198 90.8733 498.538 90.4741 498.122 89.6756L493.279 80.875C493.036 80.4584 492.689 80.3195 492.237 80.4584C491.786 80.5625 491.56 80.8402 491.56 81.2915V89.9359C491.56 90.2137 491.456 90.4393 491.248 90.6129C491.074 90.7865 490.866 90.8733 490.623 90.8733H476.459ZM540.3 91.8106C533.53 91.8106 528.045 90.0748 523.845 86.6032C519.679 83.1315 517.596 78.4795 517.596 72.6471C517.596 66.8148 519.679 62.1628 523.845 58.6911C528.045 55.2195 533.53 53.4837 540.3 53.4837C543.251 53.4837 547.243 53.692 552.277 54.1086C552.52 54.1086 552.711 54.1953 552.85 54.3689C553.024 54.5425 553.11 54.7508 553.11 54.9938V68.7415C553.11 68.9151 553.058 69.0714 552.954 69.2102C552.885 69.3491 552.763 69.4706 552.59 69.5747C552.451 69.6442 552.295 69.6789 552.121 69.6789C547.33 69.2623 543.39 69.054 540.3 69.054C538.842 69.054 537.627 69.1929 536.655 69.4706C535.683 69.7136 534.988 70.0608 534.572 70.5121C534.19 70.9287 533.93 71.3106 533.791 71.6577C533.687 71.9702 533.635 72.3 533.635 72.6471C533.635 74.7301 535.318 75.9105 538.686 76.1882C538.929 76.2229 539.154 76.1535 539.363 75.9799C539.571 75.7716 539.675 75.5286 539.675 75.2509V73.1679C539.675 72.8902 539.762 72.6645 539.936 72.4909C540.109 72.3173 540.317 72.2306 540.56 72.2306H554.777C555.02 72.2306 555.228 72.3173 555.402 72.4909C555.575 72.6645 555.662 72.8902 555.662 73.1679V90.0401C555.662 90.1442 555.645 90.2484 555.61 90.3525C555.575 90.4567 555.523 90.5608 555.454 90.665C555.384 90.7344 555.298 90.8039 555.193 90.8733C555.089 90.908 554.968 90.9254 554.829 90.9254C548.372 91.5155 543.529 91.8106 540.3 91.8106ZM581.253 91.1857C581.01 91.151 580.802 91.0469 580.628 90.8733C580.455 90.6997 580.368 90.4914 580.368 90.2484V76.5528C580.368 76.275 580.455 76.0494 580.628 75.8758C580.837 75.7022 581.08 75.6328 581.357 75.6675C586.183 76.0494 591.373 76.2403 596.928 76.2403C598.49 76.2403 599.74 76.1362 600.677 75.9279C601.059 75.8584 601.302 75.6501 601.406 75.303C601.545 74.9211 601.51 74.5739 601.302 74.2615C601.128 73.949 600.833 73.7928 600.417 73.7928H592.293C588.544 73.7928 585.645 72.8902 583.597 71.0849C581.583 69.2449 580.576 67.0404 580.576 64.4714C580.576 63.048 580.819 61.7809 581.305 60.67C581.826 59.5243 582.451 58.587 583.18 57.8579C583.909 57.1289 584.916 56.4866 586.2 55.9312C587.485 55.3757 588.613 54.9591 589.585 54.6814C590.592 54.4036 591.928 54.178 593.595 54.0044C595.261 53.8308 596.528 53.7267 597.396 53.692C598.299 53.6225 599.549 53.5705 601.146 53.5357C601.597 53.501 601.944 53.4837 602.187 53.4837C605.346 53.4837 609.807 53.692 615.57 54.1086C615.709 54.1086 615.848 54.1606 615.987 54.2648C616.126 54.3342 616.23 54.4384 616.299 54.5772C616.369 54.7161 616.404 54.855 616.404 54.9938V68.7415C616.404 69.0193 616.299 69.2449 616.091 69.4185C615.883 69.5921 615.657 69.6789 615.414 69.6789C610.623 69.2623 606.666 69.054 603.541 69.054C602.569 69.054 601.719 69.0887 600.989 69.1581C600.538 69.1929 600.243 69.4012 600.104 69.783C599.965 70.1649 600 70.5294 600.208 70.8766C600.417 71.1891 600.729 71.3453 601.146 71.3453L607.395 71.0328C615.518 71.0328 619.58 74.1747 619.58 80.4584C619.58 81.9859 619.302 83.3745 618.747 84.6243C618.191 85.8394 617.532 86.8462 616.768 87.6447C616.004 88.4084 614.928 89.068 613.539 89.6235C612.186 90.1442 610.97 90.5435 609.894 90.8212C608.818 91.0989 607.412 91.3072 605.676 91.4461C603.975 91.585 602.656 91.6544 601.719 91.6544C600.781 91.6891 599.514 91.7065 597.917 91.7065C597.605 91.7065 597.379 91.7065 597.24 91.7065C593.977 91.7065 588.648 91.5329 581.253 91.1857ZM651.654 90.3525C648.912 91.3246 645.804 91.8106 642.333 91.8106C638.896 91.8106 635.806 91.3246 633.063 90.3525C630.321 89.3805 628.082 88.0265 626.346 86.2907C624.61 84.5549 623.291 82.5413 622.388 80.2501C621.486 77.924 621.034 75.3897 621.034 72.6471C621.034 69.9045 621.486 67.3876 622.388 65.0963C623.291 62.7703 624.61 60.7394 626.346 59.0036C628.082 57.2678 630.321 55.9138 633.063 54.9418C635.806 53.9697 638.896 53.4837 642.333 53.4837C645.804 53.4837 648.912 53.9697 651.654 54.9418C654.397 55.9138 656.636 57.2678 658.372 59.0036C660.108 60.7394 661.427 62.7703 662.329 65.0963C663.232 67.3876 663.683 69.9045 663.683 72.6471C663.683 75.3897 663.232 77.924 662.329 80.2501C661.427 82.5413 660.108 84.5549 658.372 86.2907C656.636 88.0265 654.397 89.3805 651.654 90.3525ZM646.499 70.3559C645.735 69.8004 644.346 69.5227 642.333 69.5227C640.354 69.5227 638.983 69.8004 638.219 70.3559C637.455 70.9113 637.073 71.6751 637.073 72.6471C637.073 73.6192 637.455 74.383 638.219 74.9384C638.983 75.4939 640.354 75.7716 642.333 75.7716C644.346 75.7716 645.735 75.4939 646.499 74.9384C647.262 74.383 647.644 73.6192 647.644 72.6471C647.644 71.6751 647.262 70.9113 646.499 70.3559ZM695.745 90.3525C693.002 91.3246 689.895 91.8106 686.423 91.8106C682.986 91.8106 679.897 91.3246 677.154 90.3525C674.411 89.3805 672.172 88.0265 670.436 86.2907C668.701 84.5549 667.381 82.5413 666.479 80.2501C665.576 77.924 665.125 75.3897 665.125 72.6471C665.125 69.9045 665.576 67.3876 666.479 65.0963C667.381 62.7703 668.701 60.7394 670.436 59.0036C672.172 57.2678 674.411 55.9138 677.154 54.9418C679.897 53.9697 682.986 53.4837 686.423 53.4837C689.895 53.4837 693.002 53.9697 695.745 54.9418C698.487 55.9138 700.727 57.2678 702.462 59.0036C704.198 60.7394 705.517 62.7703 706.42 65.0963C707.323 67.3876 707.774 69.9045 707.774 72.6471C707.774 75.3897 707.323 77.924 706.42 80.2501C705.517 82.5413 704.198 84.5549 702.462 86.2907C700.727 88.0265 698.487 89.3805 695.745 90.3525ZM690.589 70.3559C689.826 69.8004 688.437 69.5227 686.423 69.5227C684.444 69.5227 683.073 69.8004 682.309 70.3559C681.546 70.9113 681.164 71.6751 681.164 72.6471C681.164 73.6192 681.546 74.383 682.309 74.9384C683.073 75.4939 684.444 75.7716 686.423 75.7716C688.437 75.7716 689.826 75.4939 690.589 74.9384C691.353 74.383 691.735 73.6192 691.735 72.6471C691.735 71.6751 691.353 70.9113 690.589 70.3559ZM711.507 90.8733C711.229 90.8733 711.003 90.7865 710.83 90.6129C710.656 90.4393 710.569 90.2137 710.569 89.9359V55.3583C710.569 55.0806 710.656 54.855 710.83 54.6814C711.003 54.5078 711.229 54.421 711.507 54.421H725.254C726.157 54.421 726.817 54.8202 727.233 55.6187L732.076 64.4193C732.319 64.8359 732.666 64.9922 733.118 64.888C733.569 64.7492 733.795 64.4541 733.795 64.0027V55.3583C733.795 55.1848 733.829 55.0285 733.899 54.8897C734.003 54.7508 734.124 54.6467 734.263 54.5772C734.402 54.4731 734.558 54.421 734.732 54.421H748.948C749.191 54.421 749.4 54.5078 749.573 54.6814C749.747 54.855 749.834 55.0806 749.834 55.3583V89.9359C749.834 90.2137 749.747 90.4393 749.573 90.6129C749.4 90.7865 749.191 90.8733 748.948 90.8733H735.149C734.246 90.8733 733.586 90.4741 733.17 89.6756L728.327 80.875C728.084 80.4584 727.737 80.3195 727.285 80.4584C726.834 80.5625 726.608 80.8402 726.608 81.2915V89.9359C726.608 90.2137 726.504 90.4393 726.296 90.6129C726.122 90.7865 725.914 90.8733 725.671 90.8733H711.507ZM753.581 56.504C753.477 55.1153 754.171 54.421 755.664 54.421H764.517C766.009 54.421 766.704 55.1153 766.6 56.504L765.037 75.2509C764.968 75.9452 764.777 76.466 764.465 76.8131C764.152 77.1603 763.649 77.3339 762.954 77.3339H757.226C756.532 77.3339 756.028 77.1603 755.716 76.8131C755.404 76.466 755.213 75.9452 755.143 75.2509L753.581 56.504ZM754.362 81.4998C754.362 80.1112 755.056 79.4169 756.445 79.4169H763.736C765.124 79.4169 765.819 80.1112 765.819 81.4998V88.7903C765.819 90.179 765.124 90.8733 763.736 90.8733H756.445C755.056 90.8733 754.362 90.179 754.362 88.7903V81.4998Z" fill="#230000"/>
<path d="M-200.567 91.8106C-207.336 91.8106 -212.822 90.0748 -217.022 86.6032C-221.188 83.1315 -223.271 78.4795 -223.271 72.6471C-223.271 66.8148 -221.188 62.1628 -217.022 58.6911C-212.822 55.2195 -207.336 53.4837 -200.567 53.4837C-197.477 53.4837 -193.485 53.692 -188.59 54.1086C-188.347 54.1086 -188.156 54.1953 -188.017 54.3689C-187.843 54.5425 -187.756 54.7508 -187.756 54.9938V68.7415C-187.756 68.9151 -187.808 69.0714 -187.913 69.2102C-187.982 69.3491 -188.103 69.4706 -188.277 69.5747C-188.416 69.6442 -188.572 69.6789 -188.746 69.6789C-193.537 69.2623 -197.477 69.054 -200.567 69.054C-202.025 69.054 -203.24 69.1929 -204.212 69.4706C-205.184 69.7136 -205.878 70.0608 -206.295 70.5121C-206.677 70.9287 -206.937 71.3106 -207.076 71.6577C-207.18 71.9702 -207.232 72.3 -207.232 72.6471C-207.232 72.9943 -207.18 73.3415 -207.076 73.6886C-206.937 74.0011 -206.677 74.383 -206.295 74.8343C-205.878 75.2509 -205.184 75.598 -204.212 75.8758C-203.24 76.1188 -202.025 76.2403 -200.567 76.2403C-197.13 76.2403 -193.189 76.0494 -188.746 75.6675C-188.607 75.6328 -188.485 75.6501 -188.381 75.7196C-188.242 75.7543 -188.138 75.8063 -188.069 75.8758C-187.965 75.9452 -187.895 76.0494 -187.86 76.1882C-187.791 76.2924 -187.756 76.4139 -187.756 76.5528V90.3005C-187.756 90.5435 -187.843 90.7518 -188.017 90.9254C-188.156 91.0989 -188.347 91.1857 -188.59 91.1857C-193.45 91.6023 -197.442 91.8106 -200.567 91.8106ZM-154.459 90.3525C-157.201 91.3246 -160.308 91.8106 -163.78 91.8106C-167.217 91.8106 -170.307 91.3246 -173.049 90.3525C-175.792 89.3805 -178.031 88.0265 -179.767 86.2907C-181.503 84.5549 -182.822 82.5413 -183.725 80.2501C-184.627 77.924 -185.079 75.3897 -185.079 72.6471C-185.079 69.9045 -184.627 67.3876 -183.725 65.0963C-182.822 62.7703 -181.503 60.7394 -179.767 59.0036C-178.031 57.2678 -175.792 55.9138 -173.049 54.9418C-170.307 53.9697 -167.217 53.4837 -163.78 53.4837C-160.308 53.4837 -157.201 53.9697 -154.459 54.9418C-151.716 55.9138 -149.477 57.2678 -147.741 59.0036C-146.005 60.7394 -144.686 62.7703 -143.783 65.0963C-142.881 67.3876 -142.429 69.9045 -142.429 72.6471C-142.429 75.3897 -142.881 77.924 -143.783 80.2501C-144.686 82.5413 -146.005 84.5549 -147.741 86.2907C-149.477 88.0265 -151.716 89.3805 -154.459 90.3525ZM-159.614 70.3559C-160.378 69.8004 -161.766 69.5227 -163.78 69.5227C-165.759 69.5227 -167.13 69.8004 -167.894 70.3559C-168.658 70.9113 -169.04 71.6751 -169.04 72.6471C-169.04 73.6192 -168.658 74.383 -167.894 74.9384C-167.13 75.4939 -165.759 75.7716 -163.78 75.7716C-161.766 75.7716 -160.378 75.4939 -159.614 74.9384C-158.85 74.383 -158.468 73.6192 -158.468 72.6471C-158.468 71.6751 -158.85 70.9113 -159.614 70.3559ZM-124.532 90.8733H-138.697C-138.974 90.8733 -139.2 90.7865 -139.374 90.6129C-139.547 90.4393 -139.634 90.2137 -139.634 89.9359V55.3583C-139.634 55.0806 -139.547 54.855 -139.374 54.6814C-139.2 54.5078 -138.974 54.421 -138.697 54.421H-119.741C-119.255 54.421 -118.96 54.6467 -118.856 55.098L-115.159 69.2102C-115.124 69.4185 -114.985 69.5227 -114.742 69.5227C-114.499 69.5227 -114.343 69.4185 -114.274 69.2102L-110.628 55.098C-110.49 54.6467 -110.194 54.421 -109.743 54.421H-90.7359C-90.4929 54.421 -90.2846 54.5078 -90.111 54.6814C-89.9374 54.855 -89.8506 55.0806 -89.8506 55.3583V89.9359C-89.8506 90.1095 -89.8853 90.2658 -89.9548 90.4046C-90.0242 90.5435 -90.1283 90.665 -90.2672 90.7691C-90.4061 90.8386 -90.5623 90.8733 -90.7359 90.8733H-104.952C-105.195 90.8733 -105.404 90.7865 -105.577 90.6129C-105.751 90.4393 -105.838 90.2137 -105.838 89.9359V77.2818C-105.838 77.0388 -105.976 76.8999 -106.254 76.8652C-106.532 76.8305 -106.705 76.9346 -106.775 77.1776L-110.16 90.1963C-110.264 90.6476 -110.559 90.8733 -111.045 90.8733H-118.44C-118.891 90.8733 -119.186 90.6476 -119.325 90.1963L-122.71 77.1776C-122.779 76.9346 -122.953 76.8305 -123.23 76.8652C-123.474 76.8999 -123.595 77.0388 -123.595 77.2818V89.9359C-123.595 90.2137 -123.699 90.4393 -123.907 90.6129C-124.081 90.7865 -124.289 90.8733 -124.532 90.8733ZM-84.6895 54.421H-70.5252C-70.2822 54.421 -70.0739 54.5078 -69.9003 54.6814C-69.692 54.855 -69.5879 55.0806 -69.5879 55.3583V89.9359C-69.5879 90.2137 -69.692 90.4393 -69.9003 90.6129C-70.0739 90.7865 -70.2822 90.8733 -70.5252 90.8733H-84.6895C-84.9673 90.8733 -85.1929 90.7865 -85.3665 90.6129C-85.5401 90.4393 -85.6269 90.2137 -85.6269 89.9359V55.3583C-85.6269 55.0806 -85.5401 54.855 -85.3665 54.6814C-85.1929 54.5078 -84.9673 54.421 -84.6895 54.421ZM-64.5004 90.8733C-64.7782 90.8733 -65.0038 90.7865 -65.1774 90.6129C-65.351 90.4393 -65.4378 90.2137 -65.4378 89.9359V55.3583C-65.4378 55.0806 -65.351 54.855 -65.1774 54.6814C-65.0038 54.5078 -64.7782 54.421 -64.5004 54.421H-50.7527C-49.8501 54.421 -49.1905 54.8202 -48.7739 55.6187L-43.9309 64.4193C-43.6879 64.8359 -43.3407 64.9922 -42.8894 64.888C-42.4381 64.7492 -42.2125 64.4541 -42.2125 64.0027V55.3583C-42.2125 55.1848 -42.1777 55.0285 -42.1083 54.8897C-42.0042 54.7508 -41.8826 54.6467 -41.7438 54.5772C-41.6049 54.4731 -41.4487 54.421 -41.2751 54.421H-27.0587C-26.8157 54.421 -26.6074 54.5078 -26.4338 54.6814C-26.2602 54.855 -26.1734 55.0806 -26.1734 55.3583V89.9359C-26.1734 90.2137 -26.2602 90.4393 -26.4338 90.6129C-26.6074 90.7865 -26.8157 90.8733 -27.0587 90.8733H-40.8585C-41.7611 90.8733 -42.4207 90.4741 -42.8373 89.6756L-47.6803 80.875C-47.9233 80.4584 -48.2705 80.3195 -48.7218 80.4584C-49.1731 80.5625 -49.3988 80.8402 -49.3988 81.2915V89.9359C-49.3988 90.2137 -49.5029 90.4393 -49.7112 90.6129C-49.8848 90.7865 -50.0931 90.8733 -50.3361 90.8733H-64.5004ZM-0.658867 91.8106C-7.42858 91.8106 -12.9138 90.0748 -17.1145 86.6032C-21.2804 83.1315 -23.3634 78.4795 -23.3634 72.6471C-23.3634 66.8148 -21.2804 62.1628 -17.1145 58.6911C-12.9138 55.2195 -7.42858 53.4837 -0.658867 53.4837C2.29203 53.4837 6.28443 53.692 11.3183 54.1086C11.5613 54.1086 11.7523 54.1953 11.8911 54.3689C12.0647 54.5425 12.1515 54.7508 12.1515 54.9938V68.7415C12.1515 68.9151 12.0994 69.0714 11.9953 69.2102C11.9259 69.3491 11.8043 69.4706 11.6308 69.5747C11.4919 69.6442 11.3357 69.6789 11.1621 69.6789C6.37122 69.2623 2.4309 69.054 -0.658867 69.054C-2.11696 69.054 -3.33204 69.1929 -4.3041 69.4706C-5.27616 69.7136 -5.97049 70.0608 -6.38708 70.5121C-6.76897 70.9287 -7.02934 71.3106 -7.16821 71.6577C-7.27235 71.9702 -7.32443 72.3 -7.32443 72.6471C-7.32443 74.7301 -5.64068 75.9105 -2.27318 76.1882C-2.03017 76.2229 -1.80451 76.1535 -1.59621 75.9799C-1.38791 75.7716 -1.28376 75.5286 -1.28376 75.2509V73.1679C-1.28376 72.8902 -1.19697 72.6645 -1.02339 72.4909C-0.849808 72.3173 -0.641509 72.2306 -0.398494 72.2306H13.8179C14.0609 72.2306 14.2692 72.3173 14.4428 72.4909C14.6164 72.6645 14.7032 72.8902 14.7032 73.1679V90.0401C14.7032 90.1442 14.6858 90.2484 14.6511 90.3525C14.6164 90.4567 14.5643 90.5608 14.4949 90.665C14.4254 90.7344 14.3386 90.8039 14.2345 90.8733C14.1303 90.908 14.0088 90.9254 13.87 90.9254C7.41271 91.5155 2.56976 91.8106 -0.658867 91.8106ZM40.2942 91.1857C40.0512 91.151 39.8429 91.0469 39.6693 90.8733C39.4957 90.6997 39.4089 90.4914 39.4089 90.2484V76.5528C39.4089 76.275 39.4957 76.0494 39.6693 75.8758C39.8776 75.7022 40.1206 75.6328 40.3983 75.6675C45.2239 76.0494 50.414 76.2403 55.9687 76.2403C57.5309 76.2403 58.7807 76.1362 59.7181 75.9279C60.0999 75.8584 60.343 75.6501 60.4471 75.303C60.586 74.9211 60.5513 74.5739 60.343 74.2615C60.1694 73.949 59.8743 73.7928 59.4577 73.7928H51.334C47.5847 73.7928 44.6858 72.8902 42.6376 71.0849C40.624 69.2449 39.6172 67.0404 39.6172 64.4714C39.6172 63.048 39.8602 61.7809 40.3463 60.67C40.867 59.5243 41.4919 58.587 42.221 57.8579C42.95 57.1289 43.9568 56.4866 45.2413 55.9312C46.5258 55.3757 47.6541 54.9591 48.6261 54.6814C49.6329 54.4036 50.9695 54.178 52.6359 54.0044C54.3023 53.8308 55.5694 53.7267 56.4374 53.692C57.34 53.6225 58.5898 53.5705 60.1867 53.5357C60.638 53.501 60.9852 53.4837 61.2282 53.4837C64.3874 53.4837 68.8485 53.692 74.6114 54.1086C74.7503 54.1086 74.8892 54.1606 75.028 54.2648C75.1669 54.3342 75.271 54.4384 75.3405 54.5772C75.4099 54.7161 75.4446 54.855 75.4446 54.9938V68.7415C75.4446 69.0193 75.3405 69.2449 75.1322 69.4185C74.9239 69.5921 74.6982 69.6789 74.4552 69.6789C69.6643 69.2623 65.7066 69.054 62.5822 69.054C61.6101 69.054 60.7596 69.0887 60.0305 69.1581C59.5792 69.1929 59.2841 69.4012 59.1452 69.783C59.0064 70.1649 59.0411 70.5294 59.2494 70.8766C59.4577 71.1891 59.7701 71.3453 60.1867 71.3453L66.4357 71.0328C74.5593 71.0328 78.6212 74.1747 78.6212 80.4584C78.6212 81.9859 78.3434 83.3745 77.788 84.6243C77.2325 85.8394 76.5729 86.8462 75.8091 87.6447C75.0454 88.4084 73.9692 89.068 72.5805 89.6235C71.2266 90.1442 70.0115 90.5435 68.9353 90.8212C67.8591 91.0989 66.4531 91.3072 64.7172 91.4461C63.0161 91.585 61.6969 91.6544 60.7596 91.6544C59.8222 91.6891 58.5551 91.7065 56.9581 91.7065C56.6457 91.7065 56.42 91.7065 56.2811 91.7065C53.0178 91.7065 47.6888 91.5329 40.2942 91.1857ZM110.695 90.3525C107.953 91.3246 104.845 91.8106 101.374 91.8106C97.9368 91.8106 94.8471 91.3246 92.1045 90.3525C89.3619 89.3805 87.1226 88.0265 85.3868 86.2907C83.651 84.5549 82.3318 82.5413 81.4291 80.2501C80.5265 77.924 80.0752 75.3897 80.0752 72.6471C80.0752 69.9045 80.5265 67.3876 81.4291 65.0963C82.3318 62.7703 83.651 60.7394 85.3868 59.0036C87.1226 57.2678 89.3619 55.9138 92.1045 54.9418C94.8471 53.9697 97.9368 53.4837 101.374 53.4837C104.845 53.4837 107.953 53.9697 110.695 54.9418C113.438 55.9138 115.677 57.2678 117.413 59.0036C119.149 60.7394 120.468 62.7703 121.37 65.0963C122.273 67.3876 122.724 69.9045 122.724 72.6471C122.724 75.3897 122.273 77.924 121.37 80.2501C120.468 82.5413 119.149 84.5549 117.413 86.2907C115.677 88.0265 113.438 89.3805 110.695 90.3525ZM105.54 70.3559C104.776 69.8004 103.387 69.5227 101.374 69.5227C99.3949 69.5227 98.0236 69.8004 97.2599 70.3559C96.4961 70.9113 96.1142 71.6751 96.1142 72.6471C96.1142 73.6192 96.4961 74.383 97.2599 74.9384C98.0236 75.4939 99.3949 75.7716 101.374 75.7716C103.387 75.7716 104.776 75.4939 105.54 74.9384C106.303 74.383 106.685 73.6192 106.685 72.6471C106.685 71.6751 106.303 70.9113 105.54 70.3559ZM154.786 90.3525C152.043 91.3246 148.936 91.8106 145.464 91.8106C142.027 91.8106 138.938 91.3246 136.195 90.3525C133.452 89.3805 131.213 88.0265 129.477 86.2907C127.742 84.5549 126.422 82.5413 125.52 80.2501C124.617 77.924 124.166 75.3897 124.166 72.6471C124.166 69.9045 124.617 67.3876 125.52 65.0963C126.422 62.7703 127.742 60.7394 129.477 59.0036C131.213 57.2678 133.452 55.9138 136.195 54.9418C138.938 53.9697 142.027 53.4837 145.464 53.4837C148.936 53.4837 152.043 53.9697 154.786 54.9418C157.528 55.9138 159.768 57.2678 161.503 59.0036C163.239 60.7394 164.558 62.7703 165.461 65.0963C166.364 67.3876 166.815 69.9045 166.815 72.6471C166.815 75.3897 166.364 77.924 165.461 80.2501C164.558 82.5413 163.239 84.5549 161.503 86.2907C159.768 88.0265 157.528 89.3805 154.786 90.3525ZM149.63 70.3559C148.867 69.8004 147.478 69.5227 145.464 69.5227C143.485 69.5227 142.114 69.8004 141.35 70.3559C140.587 70.9113 140.205 71.6751 140.205 72.6471C140.205 73.6192 140.587 74.383 141.35 74.9384C142.114 75.4939 143.485 75.7716 145.464 75.7716C147.478 75.7716 148.867 75.4939 149.63 74.9384C150.394 74.383 150.776 73.6192 150.776 72.6471C150.776 71.6751 150.394 70.9113 149.63 70.3559ZM170.548 90.8733C170.27 90.8733 170.044 90.7865 169.871 90.6129C169.697 90.4393 169.61 90.2137 169.61 89.9359V55.3583C169.61 55.0806 169.697 54.855 169.871 54.6814C170.044 54.5078 170.27 54.421 170.548 54.421H184.295C185.198 54.421 185.858 54.8202 186.274 55.6187L191.117 64.4193C191.36 64.8359 191.707 64.9922 192.159 64.888C192.61 64.7492 192.836 64.4541 192.836 64.0027V55.3583C192.836 55.1848 192.87 55.0285 192.94 54.8897C193.044 54.7508 193.165 54.6467 193.304 54.5772C193.443 54.4731 193.599 54.421 193.773 54.421H207.989C208.232 54.421 208.441 54.5078 208.614 54.6814C208.788 54.855 208.875 55.0806 208.875 55.3583V89.9359C208.875 90.2137 208.788 90.4393 208.614 90.6129C208.441 90.7865 208.232 90.8733 207.989 90.8733H194.19C193.287 90.8733 192.627 90.4741 192.211 89.6756L187.368 80.875C187.125 80.4584 186.778 80.3195 186.326 80.4584C185.875 80.5625 185.649 80.8402 185.649 81.2915V89.9359C185.649 90.2137 185.545 90.4393 185.337 90.6129C185.163 90.7865 184.955 90.8733 184.712 90.8733H170.548ZM212.622 56.504C212.518 55.1153 213.212 54.421 214.705 54.421H223.558C225.05 54.421 225.745 55.1153 225.641 56.504L224.078 75.2509C224.009 75.9452 223.818 76.466 223.506 76.8131C223.193 77.1603 222.69 77.3339 221.995 77.3339H216.267C215.573 77.3339 215.069 77.1603 214.757 76.8131C214.445 76.466 214.254 75.9452 214.184 75.2509L212.622 56.504ZM213.403 81.4998C213.403 80.1112 214.097 79.4169 215.486 79.4169H222.777C224.165 79.4169 224.86 80.1112 224.86 81.4998V88.7903C224.86 90.179 224.165 90.8733 222.777 90.8733H215.486C214.097 90.8733 213.403 90.179 213.403 88.7903V81.4998Z" fill="#230000"/>
<path d="M2503.52 91.8104C2496.75 91.8104 2491.27 90.0746 2487.07 86.6029C2482.9 83.1313 2480.82 78.4793 2480.82 72.6469C2480.82 66.8145 2482.9 62.1625 2487.07 58.6909C2491.27 55.2192 2496.75 53.4834 2503.52 53.4834C2506.61 53.4834 2510.6 53.6917 2515.5 54.1083C2515.74 54.1083 2515.93 54.1951 2516.07 54.3687C2516.25 54.5423 2516.33 54.7506 2516.33 54.9936V68.7413C2516.33 68.9149 2516.28 69.0711 2516.18 69.21C2516.11 69.3488 2515.99 69.4703 2515.81 69.5745C2515.67 69.6439 2515.52 69.6786 2515.34 69.6786C2510.55 69.262 2506.61 69.0537 2503.52 69.0537C2502.06 69.0537 2500.85 69.1926 2499.88 69.4703C2498.9 69.7134 2498.21 70.0605 2497.79 70.5118C2497.41 70.9284 2497.15 71.3103 2497.01 71.6575C2496.91 71.9699 2496.86 72.2997 2496.86 72.6469C2496.86 72.9941 2496.91 73.3412 2497.01 73.6884C2497.15 74.0008 2497.41 74.3827 2497.79 74.834C2498.21 75.2506 2498.9 75.5978 2499.88 75.8755C2500.85 76.1185 2502.06 76.2401 2503.52 76.2401C2506.96 76.2401 2510.9 76.0491 2515.34 75.6672C2515.48 75.6325 2515.6 75.6499 2515.71 75.7193C2515.85 75.754 2515.95 75.8061 2516.02 75.8755C2516.12 75.945 2516.19 76.0491 2516.23 76.188C2516.3 76.2921 2516.33 76.4136 2516.33 76.5525V90.3002C2516.33 90.5432 2516.25 90.7515 2516.07 90.9251C2515.93 91.0987 2515.74 91.1855 2515.5 91.1855C2510.64 91.6021 2506.65 91.8104 2503.52 91.8104ZM2549.63 90.3523C2546.89 91.3244 2543.78 91.8104 2540.31 91.8104C2536.87 91.8104 2533.78 91.3244 2531.04 90.3523C2528.3 89.3802 2526.06 88.0263 2524.32 86.2905C2522.59 84.5547 2521.27 82.5411 2520.36 80.2498C2519.46 77.9238 2519.01 75.3895 2519.01 72.6469C2519.01 69.9043 2519.46 67.3874 2520.36 65.0961C2521.27 62.7701 2522.59 60.7392 2524.32 59.0033C2526.06 57.2675 2528.3 55.9136 2531.04 54.9415C2533.78 53.9694 2536.87 53.4834 2540.31 53.4834C2543.78 53.4834 2546.89 53.9694 2549.63 54.9415C2552.37 55.9136 2554.61 57.2675 2556.35 59.0033C2558.08 60.7392 2559.4 62.7701 2560.31 65.0961C2561.21 67.3874 2561.66 69.9043 2561.66 72.6469C2561.66 75.3895 2561.21 77.9238 2560.31 80.2498C2559.4 82.5411 2558.08 84.5547 2556.35 86.2905C2554.61 88.0263 2552.37 89.3802 2549.63 90.3523ZM2544.47 70.3556C2543.71 69.8002 2542.32 69.5224 2540.31 69.5224C2538.33 69.5224 2536.96 69.8002 2536.19 70.3556C2535.43 70.9111 2535.05 71.6748 2535.05 72.6469C2535.05 73.619 2535.43 74.3827 2536.19 74.9382C2536.96 75.4937 2538.33 75.7714 2540.31 75.7714C2542.32 75.7714 2543.71 75.4937 2544.47 74.9382C2545.24 74.3827 2545.62 73.619 2545.62 72.6469C2545.62 71.6748 2545.24 70.9111 2544.47 70.3556ZM2579.56 90.873H2565.39C2565.11 90.873 2564.89 90.7863 2564.72 90.6127C2564.54 90.4391 2564.45 90.2134 2564.45 89.9357V55.3581C2564.45 55.0804 2564.54 54.8547 2564.72 54.6811C2564.89 54.5076 2565.11 54.4208 2565.39 54.4208H2584.35C2584.83 54.4208 2585.13 54.6464 2585.23 55.0977L2588.93 69.21C2588.96 69.4183 2589.1 69.5224 2589.35 69.5224C2589.59 69.5224 2589.75 69.4183 2589.82 69.21L2593.46 55.0977C2593.6 54.6464 2593.89 54.4208 2594.35 54.4208H2613.35C2613.6 54.4208 2613.8 54.5076 2613.98 54.6811C2614.15 54.8547 2614.24 55.0804 2614.24 55.3581V89.9357C2614.24 90.1093 2614.2 90.2655 2614.13 90.4044C2614.06 90.5432 2613.96 90.6647 2613.82 90.7689C2613.68 90.8383 2613.53 90.873 2613.35 90.873H2599.14C2598.89 90.873 2598.69 90.7863 2598.51 90.6127C2598.34 90.4391 2598.25 90.2134 2598.25 89.9357V77.2816C2598.25 77.0385 2598.11 76.8997 2597.83 76.865C2597.56 76.8302 2597.38 76.9344 2597.31 77.1774L2593.93 90.1961C2593.82 90.6474 2593.53 90.873 2593.04 90.873H2585.65C2585.2 90.873 2584.9 90.6474 2584.76 90.1961L2581.38 77.1774C2581.31 76.9344 2581.14 76.8302 2580.86 76.865C2580.62 76.8997 2580.49 77.0385 2580.49 77.2816V89.9357C2580.49 90.2134 2580.39 90.4391 2580.18 90.6127C2580.01 90.7863 2579.8 90.873 2579.56 90.873ZM2619.4 54.4208H2633.56C2633.81 54.4208 2634.01 54.5076 2634.19 54.6811C2634.4 54.8547 2634.5 55.0804 2634.5 55.3581V89.9357C2634.5 90.2134 2634.4 90.4391 2634.19 90.6127C2634.01 90.7863 2633.81 90.873 2633.56 90.873H2619.4C2619.12 90.873 2618.9 90.7863 2618.72 90.6127C2618.55 90.4391 2618.46 90.2134 2618.46 89.9357V55.3581C2618.46 55.0804 2618.55 54.8547 2618.72 54.6811C2618.9 54.5076 2619.12 54.4208 2619.4 54.4208ZM2639.59 90.873C2639.31 90.873 2639.09 90.7863 2638.91 90.6127C2638.74 90.4391 2638.65 90.2134 2638.65 89.9357V55.3581C2638.65 55.0804 2638.74 54.8547 2638.91 54.6811C2639.09 54.5076 2639.31 54.4208 2639.59 54.4208H2653.34C2654.24 54.4208 2654.9 54.82 2655.32 55.6185L2660.16 64.4191C2660.4 64.8357 2660.75 64.9919 2661.2 64.8878C2661.65 64.7489 2661.88 64.4538 2661.88 64.0025V55.3581C2661.88 55.1845 2661.91 55.0283 2661.98 54.8894C2662.08 54.7506 2662.21 54.6464 2662.35 54.577C2662.48 54.4728 2662.64 54.4208 2662.81 54.4208H2677.03C2677.27 54.4208 2677.48 54.5076 2677.66 54.6811C2677.83 54.8547 2677.92 55.0804 2677.92 55.3581V89.9357C2677.92 90.2134 2677.83 90.4391 2677.66 90.6127C2677.48 90.7863 2677.27 90.873 2677.03 90.873H2663.23C2662.33 90.873 2661.67 90.4738 2661.25 89.6753L2656.41 80.8747C2656.17 80.4581 2655.82 80.3192 2655.37 80.4581C2654.92 80.5623 2654.69 80.84 2654.69 81.2913V89.9357C2654.69 90.2134 2654.59 90.4391 2654.38 90.6127C2654.2 90.7863 2654 90.873 2653.75 90.873H2639.59ZM2703.43 91.8104C2696.66 91.8104 2691.18 90.0746 2686.97 86.6029C2682.81 83.1313 2680.73 78.4793 2680.73 72.6469C2680.73 66.8145 2682.81 62.1625 2686.97 58.6909C2691.18 55.2192 2696.66 53.4834 2703.43 53.4834C2706.38 53.4834 2710.37 53.6917 2715.41 54.1083C2715.65 54.1083 2715.84 54.1951 2715.98 54.3687C2716.15 54.5423 2716.24 54.7506 2716.24 54.9936V68.7413C2716.24 68.9149 2716.19 69.0711 2716.08 69.21C2716.01 69.3488 2715.89 69.4703 2715.72 69.5745C2715.58 69.6439 2715.42 69.6786 2715.25 69.6786C2710.46 69.262 2706.52 69.0537 2703.43 69.0537C2701.97 69.0537 2700.76 69.1926 2699.78 69.4703C2698.81 69.7134 2698.12 70.0605 2697.7 70.5118C2697.32 70.9284 2697.06 71.3103 2696.92 71.6575C2696.82 71.9699 2696.76 72.2997 2696.76 72.6469C2696.76 74.7299 2698.45 75.9103 2701.82 76.188C2702.06 76.2227 2702.28 76.1533 2702.49 75.9797C2702.7 75.7714 2702.81 75.5284 2702.81 75.2506V73.1677C2702.81 72.8899 2702.89 72.6643 2703.07 72.4907C2703.24 72.3171 2703.45 72.2303 2703.69 72.2303H2717.91C2718.15 72.2303 2718.36 72.3171 2718.53 72.4907C2718.71 72.6643 2718.79 72.8899 2718.79 73.1677V90.0399C2718.79 90.144 2718.77 90.2482 2718.74 90.3523C2718.71 90.4564 2718.65 90.5606 2718.58 90.6647C2718.51 90.7342 2718.43 90.8036 2718.32 90.873C2718.22 90.9078 2718.1 90.9251 2717.96 90.9251C2711.5 91.5153 2706.66 91.8104 2703.43 91.8104ZM2744.38 91.1855C2744.14 91.1508 2743.93 91.0466 2743.76 90.873C2743.58 90.6995 2743.5 90.4912 2743.5 90.2482V76.5525C2743.5 76.2748 2743.58 76.0491 2743.76 75.8755C2743.97 75.702 2744.21 75.6325 2744.49 75.6672C2749.31 76.0491 2754.5 76.2401 2760.06 76.2401C2761.62 76.2401 2762.87 76.1359 2763.81 75.9276C2764.19 75.8582 2764.43 75.6499 2764.54 75.3027C2764.67 74.9208 2764.64 74.5737 2764.43 74.2612C2764.26 73.9488 2763.96 73.7925 2763.55 73.7925H2755.42C2751.67 73.7925 2748.77 72.8899 2746.73 71.0847C2744.71 69.2447 2743.71 67.0402 2743.71 64.4712C2743.71 63.0478 2743.95 61.7807 2744.44 60.6697C2744.96 59.5241 2745.58 58.5867 2746.31 57.8577C2747.04 57.1286 2748.05 56.4864 2749.33 55.9309C2750.61 55.3755 2751.74 54.9589 2752.72 54.6811C2753.72 54.4034 2755.06 54.1777 2756.72 54.0042C2758.39 53.8306 2759.66 53.7264 2760.53 53.6917C2761.43 53.6223 2762.68 53.5702 2764.28 53.5355C2764.73 53.5008 2765.07 53.4834 2765.32 53.4834C2768.48 53.4834 2772.94 53.6917 2778.7 54.1083C2778.84 54.1083 2778.98 54.1604 2779.12 54.2645C2779.26 54.334 2779.36 54.4381 2779.43 54.577C2779.5 54.7159 2779.53 54.8547 2779.53 54.9936V68.7413C2779.53 69.019 2779.43 69.2447 2779.22 69.4183C2779.01 69.5919 2778.79 69.6786 2778.54 69.6786C2773.75 69.262 2769.8 69.0537 2766.67 69.0537C2765.7 69.0537 2764.85 69.0885 2764.12 69.1579C2763.67 69.1926 2763.37 69.4009 2763.23 69.7828C2763.1 70.1647 2763.13 70.5292 2763.34 70.8764C2763.55 71.1888 2763.86 71.345 2764.28 71.345L2770.52 71.0326C2778.65 71.0326 2782.71 74.1744 2782.71 80.4581C2782.71 81.9856 2782.43 83.3743 2781.88 84.6241C2781.32 85.8392 2780.66 86.8459 2779.9 87.6444C2779.13 88.4082 2778.06 89.0678 2776.67 89.6233C2775.32 90.144 2774.1 90.5432 2773.02 90.821C2771.95 91.0987 2770.54 91.307 2768.81 91.4459C2767.1 91.5847 2765.79 91.6542 2764.85 91.6542C2763.91 91.6889 2762.64 91.7062 2761.05 91.7062C2760.73 91.7062 2760.51 91.7062 2760.37 91.7062C2757.11 91.7062 2751.78 91.5327 2744.38 91.1855ZM2814.78 90.3523C2812.04 91.3244 2808.93 91.8104 2805.46 91.8104C2802.03 91.8104 2798.94 91.3244 2796.19 90.3523C2793.45 89.3802 2791.21 88.0263 2789.48 86.2905C2787.74 84.5547 2786.42 82.5411 2785.52 80.2498C2784.62 77.9238 2784.16 75.3895 2784.16 72.6469C2784.16 69.9043 2784.62 67.3874 2785.52 65.0961C2786.42 62.7701 2787.74 60.7392 2789.48 59.0033C2791.21 57.2675 2793.45 55.9136 2796.19 54.9415C2798.94 53.9694 2802.03 53.4834 2805.46 53.4834C2808.93 53.4834 2812.04 53.9694 2814.78 54.9415C2817.53 55.9136 2819.77 57.2675 2821.5 59.0033C2823.24 60.7392 2824.56 62.7701 2825.46 65.0961C2826.36 67.3874 2826.81 69.9043 2826.81 72.6469C2826.81 75.3895 2826.36 77.9238 2825.46 80.2498C2824.56 82.5411 2823.24 84.5547 2821.5 86.2905C2819.77 88.0263 2817.53 89.3802 2814.78 90.3523ZM2809.63 70.3556C2808.86 69.8002 2807.48 69.5224 2805.46 69.5224C2803.48 69.5224 2802.11 69.8002 2801.35 70.3556C2800.58 70.9111 2800.2 71.6748 2800.2 72.6469C2800.2 73.619 2800.58 74.3827 2801.35 74.9382C2802.11 75.4937 2803.48 75.7714 2805.46 75.7714C2807.48 75.7714 2808.86 75.4937 2809.63 74.9382C2810.39 74.3827 2810.77 73.619 2810.77 72.6469C2810.77 71.6748 2810.39 70.9111 2809.63 70.3556ZM2858.87 90.3523C2856.13 91.3244 2853.02 91.8104 2849.55 91.8104C2846.12 91.8104 2843.03 91.3244 2840.28 90.3523C2837.54 89.3802 2835.3 88.0263 2833.57 86.2905C2831.83 84.5547 2830.51 82.5411 2829.61 80.2498C2828.71 77.9238 2828.25 75.3895 2828.25 72.6469C2828.25 69.9043 2828.71 67.3874 2829.61 65.0961C2830.51 62.7701 2831.83 60.7392 2833.57 59.0033C2835.3 57.2675 2837.54 55.9136 2840.28 54.9415C2843.03 53.9694 2846.12 53.4834 2849.55 53.4834C2853.02 53.4834 2856.13 53.9694 2858.87 54.9415C2861.62 55.9136 2863.86 57.2675 2865.59 59.0033C2867.33 60.7392 2868.65 62.7701 2869.55 65.0961C2870.45 67.3874 2870.9 69.9043 2870.9 72.6469C2870.9 75.3895 2870.45 77.9238 2869.55 80.2498C2868.65 82.5411 2867.33 84.5547 2865.59 86.2905C2863.86 88.0263 2861.62 89.3802 2858.87 90.3523ZM2853.72 70.3556C2852.96 69.8002 2851.57 69.5224 2849.55 69.5224C2847.57 69.5224 2846.2 69.8002 2845.44 70.3556C2844.68 70.9111 2844.29 71.6748 2844.29 72.6469C2844.29 73.619 2844.68 74.3827 2845.44 74.9382C2846.2 75.4937 2847.57 75.7714 2849.55 75.7714C2851.57 75.7714 2852.96 75.4937 2853.72 74.9382C2854.48 74.3827 2854.86 73.619 2854.86 72.6469C2854.86 71.6748 2854.48 70.9111 2853.72 70.3556ZM2874.64 90.873C2874.36 90.873 2874.13 90.7863 2873.96 90.6127C2873.79 90.4391 2873.7 90.2134 2873.7 89.9357V55.3581C2873.7 55.0804 2873.79 54.8547 2873.96 54.6811C2874.13 54.5076 2874.36 54.4208 2874.64 54.4208H2888.38C2889.29 54.4208 2889.95 54.82 2890.36 55.6185L2895.21 64.4191C2895.45 64.8357 2895.8 64.9919 2896.25 64.8878C2896.7 64.7489 2896.92 64.4538 2896.92 64.0025V55.3581C2896.92 55.1845 2896.96 55.0283 2897.03 54.8894C2897.13 54.7506 2897.25 54.6464 2897.39 54.577C2897.53 54.4728 2897.69 54.4208 2897.86 54.4208H2912.08C2912.32 54.4208 2912.53 54.5076 2912.7 54.6811C2912.88 54.8547 2912.96 55.0804 2912.96 55.3581V89.9357C2912.96 90.2134 2912.88 90.4391 2912.7 90.6127C2912.53 90.7863 2912.32 90.873 2912.08 90.873H2898.28C2897.38 90.873 2896.72 90.4738 2896.3 89.6753L2891.46 80.8747C2891.21 80.4581 2890.87 80.3192 2890.42 80.4581C2889.96 80.5623 2889.74 80.84 2889.74 81.2913V89.9357C2889.74 90.2134 2889.63 90.4391 2889.43 90.6127C2889.25 90.7863 2889.04 90.873 2888.8 90.873H2874.64ZM2916.71 56.5037C2916.61 55.1151 2917.3 54.4208 2918.79 54.4208H2927.65C2929.14 54.4208 2929.83 55.1151 2929.73 56.5037L2928.17 75.2506C2928.1 75.945 2927.91 76.4657 2927.59 76.8129C2927.28 77.16 2926.78 77.3336 2926.08 77.3336H2920.36C2919.66 77.3336 2919.16 77.16 2918.85 76.8129C2918.53 76.4657 2918.34 75.945 2918.27 75.2506L2916.71 56.5037ZM2917.49 81.4996C2917.49 80.1109 2918.19 79.4166 2919.57 79.4166H2926.87C2928.25 79.4166 2928.95 80.1109 2928.95 81.4996V88.7901C2928.95 90.1787 2928.25 90.873 2926.87 90.873H2919.57C2918.19 90.873 2917.49 90.1787 2917.49 88.7901V81.4996Z" fill="#230000"/>
<path d="M3044.39 91.8104C3037.62 91.8104 3032.14 90.0746 3027.94 86.6029C3023.77 83.1313 3021.69 78.4793 3021.69 72.6469C3021.69 66.8145 3023.77 62.1625 3027.94 58.6909C3032.14 55.2192 3037.62 53.4834 3044.39 53.4834C3047.48 53.4834 3051.47 53.6917 3056.37 54.1083C3056.61 54.1083 3056.8 54.1951 3056.94 54.3687C3057.12 54.5423 3057.2 54.7506 3057.2 54.9936V68.7413C3057.2 68.9149 3057.15 69.0711 3057.05 69.21C3056.98 69.3488 3056.86 69.4703 3056.68 69.5745C3056.54 69.6439 3056.39 69.6786 3056.21 69.6786C3051.42 69.262 3047.48 69.0537 3044.39 69.0537C3042.93 69.0537 3041.72 69.1926 3040.75 69.4703C3039.77 69.7134 3039.08 70.0605 3038.66 70.5118C3038.28 70.9284 3038.02 71.3103 3037.88 71.6575C3037.78 71.9699 3037.73 72.2997 3037.73 72.6469C3037.73 72.9941 3037.78 73.3412 3037.88 73.6884C3038.02 74.0008 3038.28 74.3827 3038.66 74.834C3039.08 75.2506 3039.77 75.5978 3040.75 75.8755C3041.72 76.1185 3042.93 76.2401 3044.39 76.2401C3047.83 76.2401 3051.77 76.0491 3056.21 75.6672C3056.35 75.6325 3056.47 75.6499 3056.58 75.7193C3056.72 75.754 3056.82 75.8061 3056.89 75.8755C3056.99 75.945 3057.06 76.0491 3057.1 76.188C3057.17 76.2921 3057.2 76.4136 3057.2 76.5525V90.3002C3057.2 90.5432 3057.12 90.7515 3056.94 90.9251C3056.8 91.0987 3056.61 91.1855 3056.37 91.1855C3051.51 91.6021 3047.52 91.8104 3044.39 91.8104ZM3090.5 90.3523C3087.76 91.3244 3084.65 91.8104 3081.18 91.8104C3077.74 91.8104 3074.65 91.3244 3071.91 90.3523C3069.17 89.3802 3066.93 88.0263 3065.19 86.2905C3063.46 84.5547 3062.14 82.5411 3061.23 80.2498C3060.33 77.9238 3059.88 75.3895 3059.88 72.6469C3059.88 69.9043 3060.33 67.3874 3061.23 65.0961C3062.14 62.7701 3063.46 60.7392 3065.19 59.0033C3066.93 57.2675 3069.17 55.9136 3071.91 54.9415C3074.65 53.9694 3077.74 53.4834 3081.18 53.4834C3084.65 53.4834 3087.76 53.9694 3090.5 54.9415C3093.24 55.9136 3095.48 57.2675 3097.22 59.0033C3098.95 60.7392 3100.27 62.7701 3101.18 65.0961C3102.08 67.3874 3102.53 69.9043 3102.53 72.6469C3102.53 75.3895 3102.08 77.9238 3101.18 80.2498C3100.27 82.5411 3098.95 84.5547 3097.22 86.2905C3095.48 88.0263 3093.24 89.3802 3090.5 90.3523ZM3085.34 70.3556C3084.58 69.8002 3083.19 69.5224 3081.18 69.5224C3079.2 69.5224 3077.83 69.8002 3077.07 70.3556C3076.3 70.9111 3075.92 71.6748 3075.92 72.6469C3075.92 73.619 3076.3 74.3827 3077.07 74.9382C3077.83 75.4937 3079.2 75.7714 3081.18 75.7714C3083.19 75.7714 3084.58 75.4937 3085.34 74.9382C3086.11 74.3827 3086.49 73.619 3086.49 72.6469C3086.49 71.6748 3086.11 70.9111 3085.34 70.3556ZM3120.43 90.873H3106.26C3105.98 90.873 3105.76 90.7863 3105.59 90.6127C3105.41 90.4391 3105.32 90.2134 3105.32 89.9357V55.3581C3105.32 55.0804 3105.41 54.8547 3105.59 54.6811C3105.76 54.5076 3105.98 54.4208 3106.26 54.4208H3125.22C3125.7 54.4208 3126 54.6464 3126.1 55.0977L3129.8 69.21C3129.83 69.4183 3129.97 69.5224 3130.22 69.5224C3130.46 69.5224 3130.62 69.4183 3130.69 69.21L3134.33 55.0977C3134.47 54.6464 3134.76 54.4208 3135.22 54.4208H3154.22C3154.47 54.4208 3154.67 54.5076 3154.85 54.6811C3155.02 54.8547 3155.11 55.0804 3155.11 55.3581V89.9357C3155.11 90.1093 3155.07 90.2655 3155 90.4044C3154.93 90.5432 3154.83 90.6647 3154.69 90.7689C3154.55 90.8383 3154.4 90.873 3154.22 90.873H3140.01C3139.76 90.873 3139.56 90.7863 3139.38 90.6127C3139.21 90.4391 3139.12 90.2134 3139.12 89.9357V77.2816C3139.12 77.0385 3138.98 76.8997 3138.7 76.865C3138.43 76.8302 3138.25 76.9344 3138.18 77.1774L3134.8 90.1961C3134.7 90.6474 3134.4 90.873 3133.91 90.873H3126.52C3126.07 90.873 3125.77 90.6474 3125.63 90.1961L3122.25 77.1774C3122.18 76.9344 3122.01 76.8302 3121.73 76.865C3121.49 76.8997 3121.36 77.0385 3121.36 77.2816V89.9357C3121.36 90.2134 3121.26 90.4391 3121.05 90.6127C3120.88 90.7863 3120.67 90.873 3120.43 90.873ZM3160.27 54.4208H3174.43C3174.68 54.4208 3174.89 54.5076 3175.06 54.6811C3175.27 54.8547 3175.37 55.0804 3175.37 55.3581V89.9357C3175.37 90.2134 3175.27 90.4391 3175.06 90.6127C3174.89 90.7863 3174.68 90.873 3174.43 90.873H3160.27C3159.99 90.873 3159.77 90.7863 3159.59 90.6127C3159.42 90.4391 3159.33 90.2134 3159.33 89.9357V55.3581C3159.33 55.0804 3159.42 54.8547 3159.59 54.6811C3159.77 54.5076 3159.99 54.4208 3160.27 54.4208ZM3180.46 90.873C3180.18 90.873 3179.96 90.7863 3179.78 90.6127C3179.61 90.4391 3179.52 90.2134 3179.52 89.9357V55.3581C3179.52 55.0804 3179.61 54.8547 3179.78 54.6811C3179.96 54.5076 3180.18 54.4208 3180.46 54.4208H3194.21C3195.11 54.4208 3195.77 54.82 3196.19 55.6185L3201.03 64.4191C3201.27 64.8357 3201.62 64.9919 3202.07 64.8878C3202.52 64.7489 3202.75 64.4538 3202.75 64.0025V55.3581C3202.75 55.1845 3202.78 55.0283 3202.85 54.8894C3202.95 54.7506 3203.08 54.6464 3203.22 54.577C3203.35 54.4728 3203.51 54.4208 3203.68 54.4208H3217.9C3218.14 54.4208 3218.35 54.5076 3218.53 54.6811C3218.7 54.8547 3218.79 55.0804 3218.79 55.3581V89.9357C3218.79 90.2134 3218.7 90.4391 3218.53 90.6127C3218.35 90.7863 3218.14 90.873 3217.9 90.873H3204.1C3203.2 90.873 3202.54 90.4738 3202.12 89.6753L3197.28 80.8747C3197.04 80.4581 3196.69 80.3192 3196.24 80.4581C3195.79 80.5623 3195.56 80.84 3195.56 81.2913V89.9357C3195.56 90.2134 3195.46 90.4391 3195.25 90.6127C3195.07 90.7863 3194.87 90.873 3194.62 90.873H3180.46ZM3244.3 91.8104C3237.53 91.8104 3232.05 90.0746 3227.84 86.6029C3223.68 83.1313 3221.6 78.4793 3221.6 72.6469C3221.6 66.8145 3223.68 62.1625 3227.84 58.6909C3232.05 55.2192 3237.53 53.4834 3244.3 53.4834C3247.25 53.4834 3251.24 53.6917 3256.28 54.1083C3256.52 54.1083 3256.71 54.1951 3256.85 54.3687C3257.02 54.5423 3257.11 54.7506 3257.11 54.9936V68.7413C3257.11 68.9149 3257.06 69.0711 3256.95 69.21C3256.88 69.3488 3256.76 69.4703 3256.59 69.5745C3256.45 69.6439 3256.29 69.6786 3256.12 69.6786C3251.33 69.262 3247.39 69.0537 3244.3 69.0537C3242.84 69.0537 3241.63 69.1926 3240.65 69.4703C3239.68 69.7134 3238.99 70.0605 3238.57 70.5118C3238.19 70.9284 3237.93 71.3103 3237.79 71.6575C3237.69 71.9699 3237.63 72.2997 3237.63 72.6469C3237.63 74.7299 3239.32 75.9103 3242.69 76.188C3242.93 76.2227 3243.15 76.1533 3243.36 75.9797C3243.57 75.7714 3243.68 75.5284 3243.68 75.2506V73.1677C3243.68 72.8899 3243.76 72.6643 3243.94 72.4907C3244.11 72.3171 3244.32 72.2303 3244.56 72.2303H3258.78C3259.02 72.2303 3259.23 72.3171 3259.4 72.4907C3259.58 72.6643 3259.66 72.8899 3259.66 73.1677V90.0399C3259.66 90.144 3259.64 90.2482 3259.61 90.3523C3259.58 90.4564 3259.52 90.5606 3259.45 90.6647C3259.38 90.7342 3259.3 90.8036 3259.19 90.873C3259.09 90.9078 3258.97 90.9251 3258.83 90.9251C3252.37 91.5153 3247.53 91.8104 3244.3 91.8104ZM3285.25 91.1855C3285.01 91.1508 3284.8 91.0466 3284.63 90.873C3284.45 90.6995 3284.37 90.4912 3284.37 90.2482V76.5525C3284.37 76.2748 3284.45 76.0491 3284.63 75.8755C3284.84 75.702 3285.08 75.6325 3285.36 75.6672C3290.18 76.0491 3295.37 76.2401 3300.93 76.2401C3302.49 76.2401 3303.74 76.1359 3304.68 75.9276C3305.06 75.8582 3305.3 75.6499 3305.41 75.3027C3305.54 74.9208 3305.51 74.5737 3305.3 74.2612C3305.13 73.9488 3304.83 73.7925 3304.42 73.7925H3296.29C3292.54 73.7925 3289.64 72.8899 3287.6 71.0847C3285.58 69.2447 3284.58 67.0402 3284.58 64.4712C3284.58 63.0478 3284.82 61.7807 3285.31 60.6697C3285.83 59.5241 3286.45 58.5867 3287.18 57.8577C3287.91 57.1286 3288.92 56.4864 3290.2 55.9309C3291.48 55.3755 3292.61 54.9589 3293.59 54.6811C3294.59 54.4034 3295.93 54.1777 3297.59 54.0042C3299.26 53.8306 3300.53 53.7264 3301.4 53.6917C3302.3 53.6223 3303.55 53.5702 3305.15 53.5355C3305.6 53.5008 3305.94 53.4834 3306.19 53.4834C3309.35 53.4834 3313.81 53.6917 3319.57 54.1083C3319.71 54.1083 3319.85 54.1604 3319.99 54.2645C3320.13 54.334 3320.23 54.4381 3320.3 54.577C3320.37 54.7159 3320.4 54.8547 3320.4 54.9936V68.7413C3320.4 69.019 3320.3 69.2447 3320.09 69.4183C3319.88 69.5919 3319.66 69.6786 3319.41 69.6786C3314.62 69.262 3310.67 69.0537 3307.54 69.0537C3306.57 69.0537 3305.72 69.0885 3304.99 69.1579C3304.54 69.1926 3304.24 69.4009 3304.1 69.7828C3303.97 70.1647 3304 70.5292 3304.21 70.8764C3304.42 71.1888 3304.73 71.345 3305.15 71.345L3311.39 71.0326C3319.52 71.0326 3323.58 74.1744 3323.58 80.4581C3323.58 81.9856 3323.3 83.3743 3322.75 84.6241C3322.19 85.8392 3321.53 86.8459 3320.77 87.6444C3320 88.4082 3318.93 89.0678 3317.54 89.6233C3316.19 90.144 3314.97 90.5432 3313.89 90.821C3312.82 91.0987 3311.41 91.307 3309.68 91.4459C3307.98 91.5847 3306.66 91.6542 3305.72 91.6542C3304.78 91.6889 3303.51 91.7062 3301.92 91.7062C3301.6 91.7062 3301.38 91.7062 3301.24 91.7062C3297.98 91.7062 3292.65 91.5327 3285.25 91.1855ZM3355.65 90.3523C3352.91 91.3244 3349.8 91.8104 3346.33 91.8104C3342.9 91.8104 3339.81 91.3244 3337.06 90.3523C3334.32 89.3802 3332.08 88.0263 3330.35 86.2905C3328.61 84.5547 3327.29 82.5411 3326.39 80.2498C3325.49 77.9238 3325.03 75.3895 3325.03 72.6469C3325.03 69.9043 3325.49 67.3874 3326.39 65.0961C3327.29 62.7701 3328.61 60.7392 3330.35 59.0033C3332.08 57.2675 3334.32 55.9136 3337.06 54.9415C3339.81 53.9694 3342.9 53.4834 3346.33 53.4834C3349.8 53.4834 3352.91 53.9694 3355.65 54.9415C3358.4 55.9136 3360.64 57.2675 3362.37 59.0033C3364.11 60.7392 3365.43 62.7701 3366.33 65.0961C3367.23 67.3874 3367.68 69.9043 3367.68 72.6469C3367.68 75.3895 3367.23 77.9238 3366.33 80.2498C3365.43 82.5411 3364.11 84.5547 3362.37 86.2905C3360.64 88.0263 3358.4 89.3802 3355.65 90.3523ZM3350.5 70.3556C3349.73 69.8002 3348.35 69.5224 3346.33 69.5224C3344.35 69.5224 3342.98 69.8002 3342.22 70.3556C3341.46 70.9111 3341.07 71.6748 3341.07 72.6469C3341.07 73.619 3341.46 74.3827 3342.22 74.9382C3342.98 75.4937 3344.35 75.7714 3346.33 75.7714C3348.35 75.7714 3349.73 75.4937 3350.5 74.9382C3351.26 74.3827 3351.64 73.619 3351.64 72.6469C3351.64 71.6748 3351.26 70.9111 3350.5 70.3556ZM3399.74 90.3523C3397 91.3244 3393.89 91.8104 3390.42 91.8104C3386.99 91.8104 3383.9 91.3244 3381.15 90.3523C3378.41 89.3802 3376.17 88.0263 3374.44 86.2905C3372.7 84.5547 3371.38 82.5411 3370.48 80.2498C3369.58 77.9238 3369.12 75.3895 3369.12 72.6469C3369.12 69.9043 3369.58 67.3874 3370.48 65.0961C3371.38 62.7701 3372.7 60.7392 3374.44 59.0033C3376.17 57.2675 3378.41 55.9136 3381.15 54.9415C3383.9 53.9694 3386.99 53.4834 3390.42 53.4834C3393.89 53.4834 3397 53.9694 3399.74 54.9415C3402.49 55.9136 3404.73 57.2675 3406.46 59.0033C3408.2 60.7392 3409.52 62.7701 3410.42 65.0961C3411.32 67.3874 3411.77 69.9043 3411.77 72.6469C3411.77 75.3895 3411.32 77.9238 3410.42 80.2498C3409.52 82.5411 3408.2 84.5547 3406.46 86.2905C3404.73 88.0263 3402.49 89.3802 3399.74 90.3523ZM3394.59 70.3556C3393.83 69.8002 3392.44 69.5224 3390.42 69.5224C3388.44 69.5224 3387.07 69.8002 3386.31 70.3556C3385.55 70.9111 3385.16 71.6748 3385.16 72.6469C3385.16 73.619 3385.55 74.3827 3386.31 74.9382C3387.07 75.4937 3388.44 75.7714 3390.42 75.7714C3392.44 75.7714 3393.83 75.4937 3394.59 74.9382C3395.35 74.3827 3395.73 73.619 3395.73 72.6469C3395.73 71.6748 3395.35 70.9111 3394.59 70.3556ZM3415.51 90.873C3415.23 90.873 3415 90.7863 3414.83 90.6127C3414.66 90.4391 3414.57 90.2134 3414.57 89.9357V55.3581C3414.57 55.0804 3414.66 54.8547 3414.83 54.6811C3415 54.5076 3415.23 54.4208 3415.51 54.4208H3429.25C3430.16 54.4208 3430.82 54.82 3431.23 55.6185L3436.08 64.4191C3436.32 64.8357 3436.67 64.9919 3437.12 64.8878C3437.57 64.7489 3437.79 64.4538 3437.79 64.0025V55.3581C3437.79 55.1845 3437.83 55.0283 3437.9 54.8894C3438 54.7506 3438.12 54.6464 3438.26 54.577C3438.4 54.4728 3438.56 54.4208 3438.73 54.4208H3452.95C3453.19 54.4208 3453.4 54.5076 3453.57 54.6811C3453.75 54.8547 3453.83 55.0804 3453.83 55.3581V89.9357C3453.83 90.2134 3453.75 90.4391 3453.57 90.6127C3453.4 90.7863 3453.19 90.873 3452.95 90.873H3439.15C3438.25 90.873 3437.59 90.4738 3437.17 89.6753L3432.33 80.8747C3432.08 80.4581 3431.74 80.3192 3431.29 80.4581C3430.83 80.5623 3430.61 80.84 3430.61 81.2913V89.9357C3430.61 90.2134 3430.5 90.4391 3430.3 90.6127C3430.12 90.7863 3429.91 90.873 3429.67 90.873H3415.51ZM3457.58 56.5037C3457.48 55.1151 3458.17 54.4208 3459.66 54.4208H3468.52C3470.01 54.4208 3470.7 55.1151 3470.6 56.5037L3469.04 75.2506C3468.97 75.945 3468.78 76.4657 3468.46 76.8129C3468.15 77.16 3467.65 77.3336 3466.95 77.3336H3461.23C3460.53 77.3336 3460.03 77.16 3459.72 76.8129C3459.4 76.4657 3459.21 75.945 3459.14 75.2506L3457.58 56.5037ZM3458.36 81.4996C3458.36 80.1109 3459.06 79.4166 3460.45 79.4166H3467.74C3469.12 79.4166 3469.82 80.1109 3469.82 81.4996V88.7901C3469.82 90.1787 3469.12 90.873 3467.74 90.873H3460.45C3459.06 90.873 3458.36 90.1787 3458.36 88.7901V81.4996Z" fill="#230000"/>
<path d="M3585.26 91.8104C3578.49 91.8104 3573.01 90.0746 3568.81 86.6029C3564.64 83.1313 3562.56 78.4793 3562.56 72.6469C3562.56 66.8145 3564.64 62.1625 3568.81 58.6909C3573.01 55.2192 3578.49 53.4834 3585.26 53.4834C3588.35 53.4834 3592.34 53.6917 3597.24 54.1083C3597.48 54.1083 3597.67 54.1951 3597.81 54.3687C3597.99 54.5423 3598.07 54.7506 3598.07 54.9936V68.7413C3598.07 68.9149 3598.02 69.0711 3597.92 69.21C3597.85 69.3488 3597.73 69.4703 3597.55 69.5745C3597.41 69.6439 3597.26 69.6786 3597.08 69.6786C3592.29 69.262 3588.35 69.0537 3585.26 69.0537C3583.8 69.0537 3582.59 69.1926 3581.62 69.4703C3580.65 69.7134 3579.95 70.0605 3579.53 70.5118C3579.15 70.9284 3578.89 71.3103 3578.75 71.6575C3578.65 71.9699 3578.6 72.2997 3578.6 72.6469C3578.6 72.9941 3578.65 73.3412 3578.75 73.6884C3578.89 74.0008 3579.15 74.3827 3579.53 74.834C3579.95 75.2506 3580.65 75.5978 3581.62 75.8755C3582.59 76.1185 3583.8 76.2401 3585.26 76.2401C3588.7 76.2401 3592.64 76.0491 3597.08 75.6672C3597.22 75.6325 3597.34 75.6499 3597.45 75.7193C3597.59 75.754 3597.69 75.8061 3597.76 75.8755C3597.86 75.945 3597.93 76.0491 3597.97 76.188C3598.04 76.2921 3598.07 76.4136 3598.07 76.5525V90.3002C3598.07 90.5432 3597.99 90.7515 3597.81 90.9251C3597.67 91.0987 3597.48 91.1855 3597.24 91.1855C3592.38 91.6021 3588.39 91.8104 3585.26 91.8104ZM3631.37 90.3523C3628.63 91.3244 3625.52 91.8104 3622.05 91.8104C3618.61 91.8104 3615.52 91.3244 3612.78 90.3523C3610.04 89.3802 3607.8 88.0263 3606.06 86.2905C3604.33 84.5547 3603.01 82.5411 3602.1 80.2498C3601.2 77.9238 3600.75 75.3895 3600.75 72.6469C3600.75 69.9043 3601.2 67.3874 3602.1 65.0961C3603.01 62.7701 3604.33 60.7392 3606.06 59.0033C3607.8 57.2675 3610.04 55.9136 3612.78 54.9415C3615.52 53.9694 3618.61 53.4834 3622.05 53.4834C3625.52 53.4834 3628.63 53.9694 3631.37 54.9415C3634.11 55.9136 3636.35 57.2675 3638.09 59.0033C3639.82 60.7392 3641.14 62.7701 3642.05 65.0961C3642.95 67.3874 3643.4 69.9043 3643.4 72.6469C3643.4 75.3895 3642.95 77.9238 3642.05 80.2498C3641.14 82.5411 3639.82 84.5547 3638.09 86.2905C3636.35 88.0263 3634.11 89.3802 3631.37 90.3523ZM3626.22 70.3556C3625.45 69.8002 3624.06 69.5224 3622.05 69.5224C3620.07 69.5224 3618.7 69.8002 3617.94 70.3556C3617.17 70.9111 3616.79 71.6748 3616.79 72.6469C3616.79 73.619 3617.17 74.3827 3617.94 74.9382C3618.7 75.4937 3620.07 75.7714 3622.05 75.7714C3624.06 75.7714 3625.45 75.4937 3626.22 74.9382C3626.98 74.3827 3627.36 73.619 3627.36 72.6469C3627.36 71.6748 3626.98 70.9111 3626.22 70.3556ZM3661.3 90.873H3647.13C3646.85 90.873 3646.63 90.7863 3646.46 90.6127C3646.28 90.4391 3646.2 90.2134 3646.2 89.9357V55.3581C3646.2 55.0804 3646.28 54.8547 3646.46 54.6811C3646.63 54.5076 3646.85 54.4208 3647.13 54.4208H3666.09C3666.57 54.4208 3666.87 54.6464 3666.97 55.0977L3670.67 69.21C3670.7 69.4183 3670.84 69.5224 3671.09 69.5224C3671.33 69.5224 3671.49 69.4183 3671.56 69.21L3675.2 55.0977C3675.34 54.6464 3675.63 54.4208 3676.09 54.4208H3695.09C3695.34 54.4208 3695.54 54.5076 3695.72 54.6811C3695.89 54.8547 3695.98 55.0804 3695.98 55.3581V89.9357C3695.98 90.1093 3695.94 90.2655 3695.87 90.4044C3695.8 90.5432 3695.7 90.6647 3695.56 90.7689C3695.42 90.8383 3695.27 90.873 3695.09 90.873H3680.88C3680.63 90.873 3680.43 90.7863 3680.25 90.6127C3680.08 90.4391 3679.99 90.2134 3679.99 89.9357V77.2816C3679.99 77.0385 3679.85 76.8997 3679.57 76.865C3679.3 76.8302 3679.12 76.9344 3679.05 77.1774L3675.67 90.1961C3675.57 90.6474 3675.27 90.873 3674.78 90.873H3667.39C3666.94 90.873 3666.64 90.6474 3666.5 90.1961L3663.12 77.1774C3663.05 76.9344 3662.88 76.8302 3662.6 76.865C3662.36 76.8997 3662.23 77.0385 3662.23 77.2816V89.9357C3662.23 90.2134 3662.13 90.4391 3661.92 90.6127C3661.75 90.7863 3661.54 90.873 3661.3 90.873ZM3701.14 54.4208H3715.3C3715.55 54.4208 3715.76 54.5076 3715.93 54.6811C3716.14 54.8547 3716.24 55.0804 3716.24 55.3581V89.9357C3716.24 90.2134 3716.14 90.4391 3715.93 90.6127C3715.76 90.7863 3715.55 90.873 3715.3 90.873H3701.14C3700.86 90.873 3700.64 90.7863 3700.46 90.6127C3700.29 90.4391 3700.2 90.2134 3700.2 89.9357V55.3581C3700.2 55.0804 3700.29 54.8547 3700.46 54.6811C3700.64 54.5076 3700.86 54.4208 3701.14 54.4208ZM3721.33 90.873C3721.05 90.873 3720.83 90.7863 3720.65 90.6127C3720.48 90.4391 3720.39 90.2134 3720.39 89.9357V55.3581C3720.39 55.0804 3720.48 54.8547 3720.65 54.6811C3720.83 54.5076 3721.05 54.4208 3721.33 54.4208H3735.08C3735.98 54.4208 3736.64 54.82 3737.06 55.6185L3741.9 64.4191C3742.14 64.8357 3742.49 64.9919 3742.94 64.8878C3743.39 64.7489 3743.62 64.4538 3743.62 64.0025V55.3581C3743.62 55.1845 3743.65 55.0283 3743.72 54.8894C3743.82 54.7506 3743.95 54.6464 3744.09 54.577C3744.22 54.4728 3744.38 54.4208 3744.55 54.4208H3758.77C3759.01 54.4208 3759.22 54.5076 3759.4 54.6811C3759.57 54.8547 3759.66 55.0804 3759.66 55.3581V89.9357C3759.66 90.2134 3759.57 90.4391 3759.4 90.6127C3759.22 90.7863 3759.01 90.873 3758.77 90.873H3744.97C3744.07 90.873 3743.41 90.4738 3742.99 89.6753L3738.15 80.8747C3737.91 80.4581 3737.56 80.3192 3737.11 80.4581C3736.66 80.5623 3736.43 80.84 3736.43 81.2913V89.9357C3736.43 90.2134 3736.33 90.4391 3736.12 90.6127C3735.94 90.7863 3735.74 90.873 3735.49 90.873H3721.33ZM3785.17 91.8104C3778.4 91.8104 3772.92 90.0746 3768.71 86.6029C3764.55 83.1313 3762.47 78.4793 3762.47 72.6469C3762.47 66.8145 3764.55 62.1625 3768.71 58.6909C3772.92 55.2192 3778.4 53.4834 3785.17 53.4834C3788.12 53.4834 3792.11 53.6917 3797.15 54.1083C3797.39 54.1083 3797.58 54.1951 3797.72 54.3687C3797.89 54.5423 3797.98 54.7506 3797.98 54.9936V68.7413C3797.98 68.9149 3797.93 69.0711 3797.82 69.21C3797.75 69.3488 3797.63 69.4703 3797.46 69.5745C3797.32 69.6439 3797.16 69.6786 3796.99 69.6786C3792.2 69.262 3788.26 69.0537 3785.17 69.0537C3783.71 69.0537 3782.5 69.1926 3781.53 69.4703C3780.55 69.7134 3779.86 70.0605 3779.44 70.5118C3779.06 70.9284 3778.8 71.3103 3778.66 71.6575C3778.56 71.9699 3778.5 72.2997 3778.5 72.6469C3778.5 74.7299 3780.19 75.9103 3783.56 76.188C3783.8 76.2227 3784.02 76.1533 3784.23 75.9797C3784.44 75.7714 3784.55 75.5284 3784.55 75.2506V73.1677C3784.55 72.8899 3784.63 72.6643 3784.81 72.4907C3784.98 72.3171 3785.19 72.2303 3785.43 72.2303H3799.65C3799.89 72.2303 3800.1 72.3171 3800.27 72.4907C3800.45 72.6643 3800.53 72.8899 3800.53 73.1677V90.0399C3800.53 90.144 3800.51 90.2482 3800.48 90.3523C3800.45 90.4564 3800.39 90.5606 3800.32 90.6647C3800.25 90.7342 3800.17 90.8036 3800.06 90.873C3799.96 90.9078 3799.84 90.9251 3799.7 90.9251C3793.24 91.5153 3788.4 91.8104 3785.17 91.8104ZM3826.12 91.1855C3825.88 91.1508 3825.67 91.0466 3825.5 90.873C3825.32 90.6995 3825.24 90.4912 3825.24 90.2482V76.5525C3825.24 76.2748 3825.32 76.0491 3825.5 75.8755C3825.71 75.702 3825.95 75.6325 3826.23 75.6672C3831.05 76.0491 3836.24 76.2401 3841.8 76.2401C3843.36 76.2401 3844.61 76.1359 3845.55 75.9276C3845.93 75.8582 3846.17 75.6499 3846.28 75.3027C3846.42 74.9208 3846.38 74.5737 3846.17 74.2612C3846 73.9488 3845.7 73.7925 3845.29 73.7925H3837.16C3833.41 73.7925 3830.51 72.8899 3828.47 71.0847C3826.45 69.2447 3825.45 67.0402 3825.45 64.4712C3825.45 63.0478 3825.69 61.7807 3826.18 60.6697C3826.7 59.5241 3827.32 58.5867 3828.05 57.8577C3828.78 57.1286 3829.79 56.4864 3831.07 55.9309C3832.35 55.3755 3833.48 54.9589 3834.46 54.6811C3835.46 54.4034 3836.8 54.1777 3838.47 54.0042C3840.13 53.8306 3841.4 53.7264 3842.27 53.6917C3843.17 53.6223 3844.42 53.5702 3846.02 53.5355C3846.47 53.5008 3846.81 53.4834 3847.06 53.4834C3850.22 53.4834 3854.68 53.6917 3860.44 54.1083C3860.58 54.1083 3860.72 54.1604 3860.86 54.2645C3861 54.334 3861.1 54.4381 3861.17 54.577C3861.24 54.7159 3861.27 54.8547 3861.27 54.9936V68.7413C3861.27 69.019 3861.17 69.2447 3860.96 69.4183C3860.75 69.5919 3860.53 69.6786 3860.28 69.6786C3855.49 69.262 3851.54 69.0537 3848.41 69.0537C3847.44 69.0537 3846.59 69.0885 3845.86 69.1579C3845.41 69.1926 3845.11 69.4009 3844.97 69.7828C3844.84 70.1647 3844.87 70.5292 3845.08 70.8764C3845.29 71.1888 3845.6 71.345 3846.02 71.345L3852.26 71.0326C3860.39 71.0326 3864.45 74.1744 3864.45 80.4581C3864.45 81.9856 3864.17 83.3743 3863.62 84.6241C3863.06 85.8392 3862.4 86.8459 3861.64 87.6444C3860.87 88.4082 3859.8 89.0678 3858.41 89.6233C3857.06 90.144 3855.84 90.5432 3854.76 90.821C3853.69 91.0987 3852.28 91.307 3850.55 91.4459C3848.85 91.5847 3847.53 91.6542 3846.59 91.6542C3845.65 91.6889 3844.38 91.7062 3842.79 91.7062C3842.47 91.7062 3842.25 91.7062 3842.11 91.7062C3838.85 91.7062 3833.52 91.5327 3826.12 91.1855ZM3896.52 90.3523C3893.78 91.3244 3890.67 91.8104 3887.2 91.8104C3883.77 91.8104 3880.68 91.3244 3877.93 90.3523C3875.19 89.3802 3872.95 88.0263 3871.22 86.2905C3869.48 84.5547 3868.16 82.5411 3867.26 80.2498C3866.36 77.9238 3865.9 75.3895 3865.9 72.6469C3865.9 69.9043 3866.36 67.3874 3867.26 65.0961C3868.16 62.7701 3869.48 60.7392 3871.22 59.0033C3872.95 57.2675 3875.19 55.9136 3877.93 54.9415C3880.68 53.9694 3883.77 53.4834 3887.2 53.4834C3890.67 53.4834 3893.78 53.9694 3896.52 54.9415C3899.27 55.9136 3901.51 57.2675 3903.24 59.0033C3904.98 60.7392 3906.3 62.7701 3907.2 65.0961C3908.1 67.3874 3908.55 69.9043 3908.55 72.6469C3908.55 75.3895 3908.1 77.9238 3907.2 80.2498C3906.3 82.5411 3904.98 84.5547 3903.24 86.2905C3901.51 88.0263 3899.27 89.3802 3896.52 90.3523ZM3891.37 70.3556C3890.61 69.8002 3889.22 69.5224 3887.2 69.5224C3885.22 69.5224 3883.85 69.8002 3883.09 70.3556C3882.33 70.9111 3881.94 71.6748 3881.94 72.6469C3881.94 73.619 3882.33 74.3827 3883.09 74.9382C3883.85 75.4937 3885.22 75.7714 3887.2 75.7714C3889.22 75.7714 3890.61 75.4937 3891.37 74.9382C3892.13 74.3827 3892.51 73.619 3892.51 72.6469C3892.51 71.6748 3892.13 70.9111 3891.37 70.3556ZM3940.61 90.3523C3937.87 91.3244 3934.77 91.8104 3931.29 91.8104C3927.86 91.8104 3924.77 91.3244 3922.02 90.3523C3919.28 89.3802 3917.04 88.0263 3915.31 86.2905C3913.57 84.5547 3912.25 82.5411 3911.35 80.2498C3910.45 77.9238 3909.99 75.3895 3909.99 72.6469C3909.99 69.9043 3910.45 67.3874 3911.35 65.0961C3912.25 62.7701 3913.57 60.7392 3915.31 59.0033C3917.04 57.2675 3919.28 55.9136 3922.02 54.9415C3924.77 53.9694 3927.86 53.4834 3931.29 53.4834C3934.77 53.4834 3937.87 53.9694 3940.61 54.9415C3943.36 55.9136 3945.6 57.2675 3947.33 59.0033C3949.07 60.7392 3950.39 62.7701 3951.29 65.0961C3952.19 67.3874 3952.64 69.9043 3952.64 72.6469C3952.64 75.3895 3952.19 77.9238 3951.29 80.2498C3950.39 82.5411 3949.07 84.5547 3947.33 86.2905C3945.6 88.0263 3943.36 89.3802 3940.61 90.3523ZM3935.46 70.3556C3934.7 69.8002 3933.31 69.5224 3931.29 69.5224C3929.31 69.5224 3927.94 69.8002 3927.18 70.3556C3926.42 70.9111 3926.03 71.6748 3926.03 72.6469C3926.03 73.619 3926.42 74.3827 3927.18 74.9382C3927.94 75.4937 3929.31 75.7714 3931.29 75.7714C3933.31 75.7714 3934.7 75.4937 3935.46 74.9382C3936.22 74.3827 3936.61 73.619 3936.61 72.6469C3936.61 71.6748 3936.22 70.9111 3935.46 70.3556ZM3956.38 90.873C3956.1 90.873 3955.87 90.7863 3955.7 90.6127C3955.53 90.4391 3955.44 90.2134 3955.44 89.9357V55.3581C3955.44 55.0804 3955.53 54.8547 3955.7 54.6811C3955.87 54.5076 3956.1 54.4208 3956.38 54.4208H3970.12C3971.03 54.4208 3971.69 54.82 3972.1 55.6185L3976.95 64.4191C3977.19 64.8357 3977.54 64.9919 3977.99 64.8878C3978.44 64.7489 3978.66 64.4538 3978.66 64.0025V55.3581C3978.66 55.1845 3978.7 55.0283 3978.77 54.8894C3978.87 54.7506 3978.99 54.6464 3979.13 54.577C3979.27 54.4728 3979.43 54.4208 3979.6 54.4208H3993.82C3994.06 54.4208 3994.27 54.5076 3994.44 54.6811C3994.62 54.8547 3994.7 55.0804 3994.7 55.3581V89.9357C3994.7 90.2134 3994.62 90.4391 3994.44 90.6127C3994.27 90.7863 3994.06 90.873 3993.82 90.873H3980.02C3979.12 90.873 3978.46 90.4738 3978.04 89.6753L3973.2 80.8747C3972.95 80.4581 3972.61 80.3192 3972.16 80.4581C3971.7 80.5623 3971.48 80.84 3971.48 81.2913V89.9357C3971.48 90.2134 3971.37 90.4391 3971.17 90.6127C3970.99 90.7863 3970.78 90.873 3970.54 90.873H3956.38ZM3998.45 56.5037C3998.35 55.1151 3999.04 54.4208 4000.53 54.4208H4009.39C4010.88 54.4208 4011.57 55.1151 4011.47 56.5037L4009.91 75.2506C4009.84 75.945 4009.65 76.4657 4009.33 76.8129C4009.02 77.16 4008.52 77.3336 4007.82 77.3336H4002.1C4001.4 77.3336 4000.9 77.16 4000.59 76.8129C4000.27 76.4657 4000.08 75.945 4000.01 75.2506L3998.45 56.5037ZM3999.23 81.4996C3999.23 80.1109 3999.93 79.4166 4001.32 79.4166H4008.61C4009.99 79.4166 4010.69 80.1109 4010.69 81.4996V88.7901C4010.69 90.1787 4009.99 90.873 4008.61 90.873H4001.32C3999.93 90.873 3999.23 90.1787 3999.23 88.7901V81.4996Z" fill="#230000"/>
</g>
<defs>
<clipPath id="clip0_108_750">
<rect width="3788" height="144" fill="white"/>
</clipPath>
</defs>
</svg>
